%TF.GenerationSoftware,KiCad,Pcbnew,(5.1.12)-1*%
%TF.CreationDate,2021-12-12T20:51:00-05:00*%
%TF.ProjectId,snowflake,736e6f77-666c-4616-9b65-2e6b69636164,rev?*%
%TF.SameCoordinates,Original*%
%TF.FileFunction,Copper,L2,Bot*%
%TF.FilePolarity,Positive*%
%FSLAX46Y46*%
G04 Gerber Fmt 4.6, Leading zero omitted, Abs format (unit mm)*
G04 Created by KiCad (PCBNEW (5.1.12)-1) date 2021-12-12 20:51:00*
%MOMM*%
%LPD*%
G01*
G04 APERTURE LIST*
%TA.AperFunction,ComponentPad*%
%ADD10O,1.700000X1.700000*%
%TD*%
%TA.AperFunction,ComponentPad*%
%ADD11R,1.700000X1.700000*%
%TD*%
%TA.AperFunction,ComponentPad*%
%ADD12C,1.524000*%
%TD*%
%TA.AperFunction,ComponentPad*%
%ADD13C,1.450000*%
%TD*%
%TA.AperFunction,ViaPad*%
%ADD14C,0.800000*%
%TD*%
%TA.AperFunction,Conductor*%
%ADD15C,0.350000*%
%TD*%
G04 APERTURE END LIST*
D10*
%TO.P,J1,6*%
%TO.N,GND*%
X175260000Y-96520000D03*
%TO.P,J1,5*%
%TO.N,LED4*%
X175260000Y-99060000D03*
%TO.P,J1,4*%
%TO.N,MOSI*%
X172720000Y-96520000D03*
%TO.P,J1,3*%
%TO.N,SCK*%
X172720000Y-99060000D03*
%TO.P,J1,2*%
%TO.N,+5V*%
X170180000Y-96520000D03*
D11*
%TO.P,J1,1*%
%TO.N,MISO*%
X170180000Y-99060000D03*
%TD*%
D12*
%TO.P,BT1,2*%
%TO.N,GND*%
X144145000Y-96774000D03*
%TO.P,BT1,1*%
%TO.N,Net-(BT1-Pad1)*%
X144145000Y-76708000D03*
%TD*%
%TO.P,BT2,1*%
%TO.N,Net-(BT2-Pad1)*%
X158877000Y-111125000D03*
%TO.P,BT2,2*%
%TO.N,Net-(BT1-Pad1)*%
X138811000Y-111125000D03*
%TD*%
D13*
%TO.P,J2,6*%
%TO.N,GND*%
X162483086Y-117687038D03*
X166813214Y-115187038D03*
%TA.AperFunction,ComponentPad*%
G36*
G01*
X163311676Y-119922197D02*
X163661676Y-120528415D01*
G75*
G02*
X163442061Y-121348030I-519615J-300000D01*
G01*
X163442061Y-121348030D01*
G75*
G02*
X162622446Y-121128415I-300000J519615D01*
G01*
X162272446Y-120522197D01*
G75*
G02*
X162492061Y-119702582I519615J300000D01*
G01*
X162492061Y-119702582D01*
G75*
G02*
X163311676Y-119922197I300000J-519615D01*
G01*
G37*
%TD.AperFunction*%
%TA.AperFunction,ComponentPad*%
G36*
G01*
X168684624Y-117628415D02*
X168334624Y-117022197D01*
G75*
G02*
X168554239Y-116202582I519615J300000D01*
G01*
X168554239Y-116202582D01*
G75*
G02*
X169373854Y-116422197I300000J-519615D01*
G01*
X169723854Y-117028415D01*
G75*
G02*
X169504239Y-117848030I-519615J-300000D01*
G01*
X169504239Y-117848030D01*
G75*
G02*
X168684624Y-117628415I-300000J519615D01*
G01*
G37*
%TD.AperFunction*%
%TD*%
D14*
%TO.N,+5V*%
X160655000Y-94615000D03*
X168219990Y-94574990D03*
X177165000Y-88900000D03*
X128270000Y-107315000D03*
X141605000Y-93345000D03*
X167640000Y-106814779D03*
X168275000Y-97790000D03*
X155956000Y-120904000D03*
%TO.N,GND*%
X141605000Y-86995000D03*
X155769999Y-88900000D03*
X174625000Y-114935000D03*
X179705000Y-113665000D03*
%TO.N,LED3*%
X172085000Y-91440000D03*
X160020000Y-100330000D03*
X157975000Y-100330000D03*
X153670000Y-100330000D03*
%TO.N,LED4*%
X153670000Y-93345000D03*
X153670000Y-99060000D03*
%TO.N,LED5*%
X158750000Y-97790000D03*
X130810000Y-86995000D03*
%TO.N,LED6*%
X152400000Y-107455000D03*
X158750000Y-99060000D03*
%TO.N,Net-(BT1-Pad1)*%
X137795000Y-81723238D03*
X139700000Y-90665000D03*
%TO.N,Net-(BT2-Pad1)*%
X157620000Y-111252000D03*
X149352000Y-107188000D03*
%TO.N,+5VA*%
X143256000Y-113576762D03*
X143256000Y-115126762D03*
X146812000Y-111760000D03*
X162560000Y-114300000D03*
%TD*%
D15*
%TO.N,+5V*%
X168179980Y-94615000D02*
X168219990Y-94574990D01*
X160655000Y-94615000D02*
X168179980Y-94615000D01*
X168219990Y-94009305D02*
X168219990Y-94574990D01*
X173329295Y-88900000D02*
X168219990Y-94009305D01*
X177165000Y-88900000D02*
X173329295Y-88900000D01*
X141605000Y-93980000D02*
X141605000Y-93345000D01*
X128270000Y-107315000D02*
X141605000Y-93980000D01*
X167640000Y-98425000D02*
X168275000Y-97790000D01*
X167640000Y-106814779D02*
X167640000Y-98425000D01*
X167640000Y-110367002D02*
X167640000Y-106814779D01*
X157103002Y-120904000D02*
X167640000Y-110367002D01*
X155956000Y-120904000D02*
X157103002Y-120904000D01*
%TO.N,GND*%
X143510000Y-88900000D02*
X155769999Y-88900000D01*
X141605000Y-86995000D02*
X143510000Y-88900000D01*
X175895000Y-113665000D02*
X179705000Y-113665000D01*
X174625000Y-114935000D02*
X175895000Y-113665000D01*
%TO.N,LED3*%
X163760685Y-100330000D02*
X160020000Y-100330000D01*
X172085000Y-92005685D02*
X163760685Y-100330000D01*
X172085000Y-91440000D02*
X172085000Y-92005685D01*
X157975000Y-100330000D02*
X153670000Y-100330000D01*
%TO.N,LED4*%
X153670000Y-93345000D02*
X153670000Y-99060000D01*
%TO.N,LED5*%
X158750000Y-96520000D02*
X158750000Y-97790000D01*
X153670000Y-91440000D02*
X158750000Y-96520000D01*
X135255000Y-91440000D02*
X153670000Y-91440000D01*
X130810000Y-86995000D02*
X135255000Y-91440000D01*
%TO.N,LED6*%
X158750000Y-101105000D02*
X158750000Y-99060000D01*
X152400000Y-107455000D02*
X158750000Y-101105000D01*
%TO.N,Net-(BT1-Pad1)*%
X139700000Y-83628238D02*
X139700000Y-90665000D01*
X137795000Y-81723238D02*
X139700000Y-83628238D01*
%TO.N,Net-(BT2-Pad1)*%
X157620000Y-111252000D02*
X155956000Y-111252000D01*
X150985998Y-107188000D02*
X149352000Y-107188000D01*
X155049998Y-111252000D02*
X150985998Y-107188000D01*
X155956000Y-111252000D02*
X155049998Y-111252000D01*
%TO.N,+5VA*%
X143256000Y-113576762D02*
X143256000Y-115126762D01*
X149352000Y-114300000D02*
X162560000Y-114300000D01*
X146812000Y-111760000D02*
X149352000Y-114300000D01*
%TD*%
M02*
