%TF.GenerationSoftware,KiCad,Pcbnew,(5.1.12)-1*%
%TF.CreationDate,2021-12-12T20:51:00-05:00*%
%TF.ProjectId,snowflake,736e6f77-666c-4616-9b65-2e6b69636164,rev?*%
%TF.SameCoordinates,Original*%
%TF.FileFunction,Profile,NP*%
%FSLAX46Y46*%
G04 Gerber Fmt 4.6, Leading zero omitted, Abs format (unit mm)*
G04 Created by KiCad (PCBNEW (5.1.12)-1) date 2021-12-12 20:51:00*
%MOMM*%
%LPD*%
G01*
G04 APERTURE LIST*
%TA.AperFunction,Profile*%
%ADD10C,0.050000*%
%TD*%
%TA.AperFunction,Profile*%
%ADD11C,0.097999*%
%TD*%
G04 APERTURE END LIST*
D10*
X156509806Y-25400000D02*
G75*
G03*
X156509806Y-25400000I-2839806J0D01*
G01*
X172900755Y-117937769D02*
X160970698Y-124825591D01*
D11*
X88361150Y-84324665D02*
X85061459Y-76599896D01*
X97455137Y-58213414D02*
X91999178Y-55063415D01*
X84999178Y-67187771D02*
G75*
G02*
X84486742Y-65275335I700000J1212436D01*
G01*
X104360634Y-118838439D02*
X90198559Y-112789006D01*
X84486743Y-132575849D02*
G75*
G02*
X84999178Y-130663414I1212435J700000D01*
G01*
X108521150Y-49406520D02*
X100181458Y-50411288D01*
X111920634Y-131932744D02*
X110078559Y-147222177D01*
X85798972Y-123088697D02*
G75*
G02*
X85061459Y-121251288I549948J1287461D01*
G01*
X99545086Y-141017667D02*
X98958971Y-145882486D01*
X98958971Y-51968699D02*
G75*
G02*
X100181458Y-50411288I1389949J167462D01*
G01*
X91999178Y-142787770D02*
G75*
G02*
X90086742Y-142275334I-700000J1212436D01*
G01*
X104360634Y-79012745D02*
X90198559Y-85062178D01*
X111920634Y-131932744D02*
G75*
G02*
X112610582Y-130887770I1389948J-167461D01*
G01*
X126221987Y-106863414D02*
X105610582Y-118763414D01*
X90455137Y-70337768D02*
G75*
G02*
X90305086Y-72837667I-700000J-1212437D01*
G01*
X126084680Y-99625591D02*
X128553076Y-103900978D01*
X112610582Y-130887770D02*
X133221987Y-118987770D01*
X90198560Y-85062177D02*
G75*
G02*
X88361150Y-84324665I-549949J1287461D01*
G01*
X100181459Y-147439896D02*
G75*
G02*
X98958971Y-145882486I167461J1389949D01*
G01*
X135040641Y-117937770D02*
G75*
G02*
X136953076Y-118450205I700000J-1212435D01*
G01*
X90305086Y-72837667D02*
X85798971Y-74762486D01*
X105610582Y-79087770D02*
X126221987Y-90987770D01*
X105610582Y-118763413D02*
G75*
G02*
X104360634Y-118838439I-700000J1212435D01*
G01*
X128040640Y-92037770D02*
G75*
G02*
X128553076Y-93950206I-700000J-1212436D01*
G01*
X128553076Y-93950206D02*
X126084680Y-98225592D01*
X97455137Y-139637768D02*
G75*
G02*
X99545086Y-141017667I700000J-1212437D01*
G01*
X140633907Y-123425591D02*
G75*
G02*
X139421472Y-122725591I0J1400000D01*
G01*
X110078560Y-147222176D02*
G75*
G02*
X108521150Y-148444664I-1389949J167461D01*
G01*
X139421472Y-75125592D02*
X136953076Y-79400979D01*
X181856716Y-98225593D02*
X179388320Y-93950206D01*
X179388320Y-103900978D02*
X181856716Y-99625592D01*
X108521150Y-148444664D02*
X100181458Y-147439896D01*
X126084681Y-99625592D02*
G75*
G02*
X126084680Y-98225592I1212435J700000D01*
G01*
X139421472Y-75125593D02*
G75*
G02*
X140633907Y-74425593I1212435J-699999D01*
G01*
X170988320Y-79400979D02*
X168519924Y-75125593D01*
X145570698Y-74425593D02*
X140633907Y-74425592D01*
X167307489Y-74425593D02*
X162370698Y-74425593D01*
X136953076Y-118450205D02*
X139421472Y-122725591D01*
X133221987Y-118987770D02*
X135040641Y-117937769D01*
X90455137Y-127513414D02*
X84999178Y-130663414D01*
X99545086Y-56833517D02*
X98958971Y-51968698D01*
X90086743Y-55575850D02*
G75*
G02*
X91999178Y-55063415I1212435J-700000D01*
G01*
X133221987Y-78863414D02*
X112610582Y-66963414D01*
X90086742Y-55575850D02*
X84486742Y-65275335D01*
X88361149Y-113526520D02*
G75*
G02*
X90198559Y-112789006I1287462J-549948D01*
G01*
X134090698Y-36765592D02*
G75*
G02*
X133810698Y-34805592I840000J1120000D01*
G01*
X202330814Y-118763414D02*
X181719409Y-106863414D01*
X172900755Y-79913414D02*
G75*
G02*
X170988320Y-79400979I-700000J1212435D01*
G01*
X146970698Y-70925592D02*
X146970698Y-73025593D01*
X146970698Y-23325592D02*
G75*
G02*
X148370698Y-21925592I1400000J0D01*
G01*
X217854654Y-142275334D02*
X223454654Y-132575849D01*
X144730698Y-30745592D02*
X140810699Y-27805592D01*
X160970698Y-70925592D02*
X160970698Y-47125592D01*
X197862836Y-50629008D02*
G75*
G02*
X199420246Y-49406520I1389949J-167461D01*
G01*
X146970698Y-29625592D02*
G75*
G02*
X144730698Y-30745592I-1400000J0D01*
G01*
X174130698Y-34805592D02*
X169090697Y-28085592D01*
X179388320Y-93950206D02*
G75*
G02*
X179900756Y-92037770I1212436J700000D01*
G01*
X146970698Y-23325592D02*
X146970698Y-29625592D01*
X199420246Y-148444664D02*
X207759938Y-147439896D01*
X138850699Y-28085592D02*
G75*
G02*
X140810699Y-27805592I1120000J-840000D01*
G01*
X160970698Y-47125592D02*
G75*
G02*
X161530698Y-46005592I1400000J0D01*
G01*
X196020762Y-131932744D02*
X197862837Y-147222177D01*
X208396310Y-56833517D02*
X208982425Y-51968698D01*
X159570698Y-21925592D02*
G75*
G02*
X160970698Y-23325592I0J-1400000D01*
G01*
X219580247Y-84324664D02*
G75*
G02*
X217742837Y-85062178I-1287462J549948D01*
G01*
X217486259Y-70337770D02*
X222942218Y-67187770D01*
X195330814Y-66963414D02*
X174719409Y-78863414D01*
X207759937Y-50411288D02*
G75*
G02*
X208982425Y-51968698I-167461J-1389949D01*
G01*
X146410698Y-46005592D02*
X134090699Y-36765592D01*
X208396311Y-141017666D02*
G75*
G02*
X210486259Y-139637770I1389948J167461D01*
G01*
X146970698Y-73025593D02*
G75*
G02*
X145570698Y-74425593I-1400000J0D01*
G01*
X174719409Y-78863414D02*
X172900755Y-79913415D01*
X210486259Y-58213416D02*
G75*
G02*
X208396310Y-56833517I-700000J1212437D01*
G01*
X217636311Y-72837666D02*
G75*
G02*
X217486259Y-70337770I549948J1287461D01*
G01*
X181719409Y-90987770D02*
X202330814Y-79087770D01*
X181719409Y-90987770D02*
X179900756Y-92037770D01*
X223454653Y-65275335D02*
G75*
G02*
X222942218Y-67187770I-1212435J-700000D01*
G01*
X146410698Y-46005592D02*
G75*
G02*
X146970698Y-47125592I-840000J-1120000D01*
G01*
X222879938Y-121251287D02*
G75*
G02*
X222142425Y-123088698I-1287462J-549949D01*
G01*
X167130697Y-27805592D02*
G75*
G02*
X169090697Y-28085592I840000J-1120000D01*
G01*
X160970698Y-29625592D02*
X160970698Y-23325592D01*
X133810698Y-163045591D02*
G75*
G02*
X134090699Y-161085592I1120000J839999D01*
G01*
X203580763Y-118838439D02*
G75*
G02*
X202330814Y-118763414I-549949J1287461D01*
G01*
X174719409Y-118987770D02*
X195330814Y-130887770D01*
X217636310Y-72837667D02*
X222142425Y-74762486D01*
X219580246Y-113526519D02*
X222879937Y-121251288D01*
X146970698Y-47125592D02*
X146970698Y-70925592D01*
X215942218Y-55063414D02*
G75*
G02*
X217854654Y-55575850I700000J-1212436D01*
G01*
X203580762Y-79012745D02*
X217742837Y-85062178D01*
X208982425Y-145882485D02*
G75*
G02*
X207759938Y-147439896I-1389949J-167462D01*
G01*
X174719409Y-118987770D02*
X172900755Y-117937769D01*
X196020762Y-65918440D02*
G75*
G02*
X195330814Y-66963414I-1389948J167461D01*
G01*
X160970698Y-70925592D02*
X160970698Y-73025593D01*
X196020762Y-65918440D02*
X197862837Y-50629007D01*
X161530698Y-46005592D02*
X173850697Y-36765592D01*
X199420246Y-49406520D02*
X207759938Y-50411288D01*
X215942218Y-55063415D02*
X210486259Y-58213414D01*
X199420247Y-148444663D02*
G75*
G02*
X197862837Y-147222177I-167462J1389948D01*
G01*
X217486259Y-127513416D02*
G75*
G02*
X217636310Y-125013517I700000J1212437D01*
G01*
X223454654Y-65275335D02*
X217854654Y-55575850D01*
X163210698Y-30745592D02*
X167130697Y-27805592D01*
X217636310Y-125013517D02*
X222142425Y-123088698D01*
X219580246Y-84324665D02*
X222879937Y-76599896D01*
X202330814Y-79087771D02*
G75*
G02*
X203580762Y-79012745I700000J-1212435D01*
G01*
X163210698Y-30745592D02*
G75*
G02*
X160970698Y-29625592I-840000J1120000D01*
G01*
X133810698Y-34805592D02*
X138850699Y-28085592D01*
X159570698Y-21925592D02*
X148370698Y-21925592D01*
X222142424Y-74762487D02*
G75*
G02*
X222879937Y-76599896I-549948J-1287461D01*
G01*
X162370698Y-74425593D02*
G75*
G02*
X160970698Y-73025593I0J1400000D01*
G01*
X174130698Y-34805593D02*
G75*
G02*
X173850697Y-36765592I-1120000J-839999D01*
G01*
X217742836Y-112789007D02*
G75*
G02*
X219580246Y-113526519I549949J-1287461D01*
G01*
X222942218Y-130663414D02*
X217486259Y-127513414D01*
X208396310Y-141017667D02*
X208982425Y-145882486D01*
X146970698Y-168225592D02*
X146970698Y-174525592D01*
X174130698Y-163045592D02*
X169090697Y-169765592D01*
X160970698Y-126925592D02*
X160970698Y-124825591D01*
X203580762Y-118838439D02*
X217742837Y-112789006D01*
X146970698Y-150725592D02*
G75*
G02*
X146410698Y-151845592I-1400000J0D01*
G01*
X179900756Y-105813414D02*
G75*
G02*
X179388320Y-103900978I700000J1212436D01*
G01*
X167307489Y-74425593D02*
G75*
G02*
X168519924Y-75125593I0J-1400000D01*
G01*
X222942218Y-130663413D02*
G75*
G02*
X223454654Y-132575849I-700000J-1212436D01*
G01*
X146970698Y-126925592D02*
X146970698Y-124825591D01*
X217854653Y-142275334D02*
G75*
G02*
X215942218Y-142787769I-1212435J700000D01*
G01*
X160970698Y-168225592D02*
G75*
G02*
X163210698Y-167105592I1400000J0D01*
G01*
X195330814Y-130887770D02*
G75*
G02*
X196020762Y-131932744I-700000J-1212435D01*
G01*
X144730698Y-167105592D02*
G75*
G02*
X146970698Y-168225592I840000J-1120000D01*
G01*
X163210698Y-167105592D02*
X167130697Y-170045592D01*
X145570698Y-123425591D02*
G75*
G02*
X146970698Y-124825591I0J-1400000D01*
G01*
X181856715Y-98225592D02*
G75*
G02*
X181856716Y-99625592I-1212435J-700000D01*
G01*
X161530698Y-151845592D02*
G75*
G02*
X160970698Y-150725592I840000J1120000D01*
G01*
X133810698Y-163045592D02*
X138850699Y-169765592D01*
X181719409Y-106863414D02*
X179900756Y-105813414D01*
X210486259Y-139637770D02*
X215942218Y-142787769D01*
X173850698Y-161085592D02*
G75*
G02*
X174130698Y-163045592I-840000J-1120000D01*
G01*
X146970698Y-126925592D02*
X146970698Y-150725592D01*
X160970698Y-150725592D02*
X160970698Y-126925592D01*
X169090697Y-169765592D02*
G75*
G02*
X167130697Y-170045592I-1120000J840000D01*
G01*
X144730698Y-167105592D02*
X140810699Y-170045592D01*
X160970698Y-174525592D02*
X160970698Y-168225592D01*
X140633907Y-123425591D02*
X145570698Y-123425591D01*
X148370698Y-175925592D02*
G75*
G02*
X146970698Y-174525592I0J1400000D01*
G01*
X146410698Y-151845592D02*
X134090699Y-161085592D01*
X160970698Y-174525592D02*
G75*
G02*
X159570698Y-175925592I-1400000J0D01*
G01*
X140810699Y-170045592D02*
G75*
G02*
X138850699Y-169765592I-840000J1120000D01*
G01*
X161530698Y-151845592D02*
X173850697Y-161085592D01*
X148370698Y-175925592D02*
X159570698Y-175925592D01*
X128553076Y-103900978D02*
G75*
G02*
X128040640Y-105813414I-1212436J-700000D01*
G01*
X91999178Y-142787769D02*
X97455137Y-139637770D01*
X90305086Y-125013517D02*
X85798971Y-123088698D01*
X99545085Y-56833518D02*
G75*
G02*
X97455137Y-58213414I-1389948J-167461D01*
G01*
X85061458Y-76599897D02*
G75*
G02*
X85798971Y-74762486I1287462J549949D01*
G01*
X112610582Y-66963414D02*
G75*
G02*
X111920634Y-65918440I700000J1212435D01*
G01*
X133221987Y-78863414D02*
X135040641Y-79913415D01*
X84999178Y-67187770D02*
X90455137Y-70337770D01*
X126221987Y-90987770D02*
X128040640Y-92037770D01*
X90305085Y-125013518D02*
G75*
G02*
X90455137Y-127513414I-549948J-1287461D01*
G01*
X126221987Y-106863414D02*
X128040640Y-105813414D01*
X84486742Y-132575849D02*
X90086742Y-142275334D01*
X88361150Y-113526519D02*
X85061459Y-121251288D01*
X111920634Y-65918440D02*
X110078559Y-50629007D01*
X136953077Y-79400979D02*
G75*
G02*
X135040641Y-79913415I-1212436J700000D01*
G01*
X108521149Y-49406521D02*
G75*
G02*
X110078559Y-50629007I167462J-1389948D01*
G01*
X104360633Y-79012745D02*
G75*
G02*
X105610582Y-79087770I549949J-1287461D01*
G01*
M02*
