M48
; DRILL file {KiCad (5.1.12)-1} date 12/12/21 20:51:28
; FORMAT={-:-/ absolute / metric / decimal}
; #@! TF.CreationDate,2021-12-12T20:51:28-05:00
; #@! TF.GenerationSoftware,Kicad,Pcbnew,(5.1.12)-1
; #@! TF.FileFunction,Plated,1,2,PTH
FMAT,2
METRIC
T1C0.400
T2C0.600
T3C0.850
T4C1.000
T5C1.300
%
G90
G05
T1
X128.27Y-107.315
X130.81Y-86.995
X137.795Y-81.723
X139.7Y-90.665
X141.605Y-86.995
X141.605Y-93.345
X143.256Y-113.577
X143.256Y-115.127
X146.812Y-111.76
X149.352Y-107.188
X152.4Y-107.455
X153.67Y-93.345
X153.67Y-99.06
X153.67Y-100.33
X155.77Y-88.9
X155.956Y-120.904
X157.62Y-111.252
X157.975Y-100.33
X158.75Y-97.79
X158.75Y-99.06
X160.02Y-100.33
X160.655Y-94.615
X162.56Y-114.3
X167.64Y-106.815
X168.22Y-94.575
X168.275Y-97.79
X172.085Y-91.44
X174.625Y-114.935
X177.165Y-88.9
X179.705Y-113.665
T3
X162.483Y-117.687
X166.813Y-115.187
T4
X170.18Y-96.52
X170.18Y-99.06
X172.72Y-96.52
X172.72Y-99.06
X175.26Y-96.52
X175.26Y-99.06
T5
X138.811Y-111.125
X144.145Y-76.708
X144.145Y-96.774
X158.877Y-111.125
T2
G00X163.142Y-120.828
M15
G01X162.792Y-120.222
M16
G05
G00X168.854Y-116.722
M15
G01X169.204Y-117.328
M16
G05
T0
M30
