%TF.GenerationSoftware,KiCad,Pcbnew,(5.1.12)-1*%
%TF.CreationDate,2021-12-12T20:51:00-05:00*%
%TF.ProjectId,snowflake,736e6f77-666c-4616-9b65-2e6b69636164,rev?*%
%TF.SameCoordinates,Original*%
%TF.FileFunction,Legend,Top*%
%TF.FilePolarity,Positive*%
%FSLAX46Y46*%
G04 Gerber Fmt 4.6, Leading zero omitted, Abs format (unit mm)*
G04 Created by KiCad (PCBNEW (5.1.12)-1) date 2021-12-12 20:51:00*
%MOMM*%
%LPD*%
G01*
G04 APERTURE LIST*
%ADD10C,0.150000*%
%ADD11C,0.300000*%
%ADD12C,0.120000*%
G04 APERTURE END LIST*
D10*
X157742666Y-80351761D02*
X157885523Y-80399380D01*
X158123619Y-80399380D01*
X158218857Y-80351761D01*
X158266476Y-80304142D01*
X158314095Y-80208904D01*
X158314095Y-80113666D01*
X158266476Y-80018428D01*
X158218857Y-79970809D01*
X158123619Y-79923190D01*
X157933142Y-79875571D01*
X157837904Y-79827952D01*
X157790285Y-79780333D01*
X157742666Y-79685095D01*
X157742666Y-79589857D01*
X157790285Y-79494619D01*
X157837904Y-79447000D01*
X157933142Y-79399380D01*
X158171238Y-79399380D01*
X158314095Y-79447000D01*
X158742666Y-79732714D02*
X158742666Y-80399380D01*
X158742666Y-79827952D02*
X158790285Y-79780333D01*
X158885523Y-79732714D01*
X159028380Y-79732714D01*
X159123619Y-79780333D01*
X159171238Y-79875571D01*
X159171238Y-80399380D01*
X159790285Y-80399380D02*
X159695047Y-80351761D01*
X159647428Y-80304142D01*
X159599809Y-80208904D01*
X159599809Y-79923190D01*
X159647428Y-79827952D01*
X159695047Y-79780333D01*
X159790285Y-79732714D01*
X159933142Y-79732714D01*
X160028380Y-79780333D01*
X160076000Y-79827952D01*
X160123619Y-79923190D01*
X160123619Y-80208904D01*
X160076000Y-80304142D01*
X160028380Y-80351761D01*
X159933142Y-80399380D01*
X159790285Y-80399380D01*
X160456952Y-79732714D02*
X160647428Y-80399380D01*
X160837904Y-79923190D01*
X161028380Y-80399380D01*
X161218857Y-79732714D01*
X161456952Y-79732714D02*
X161837904Y-79732714D01*
X161599809Y-80399380D02*
X161599809Y-79542238D01*
X161647428Y-79447000D01*
X161742666Y-79399380D01*
X161837904Y-79399380D01*
X162314095Y-80399380D02*
X162218857Y-80351761D01*
X162171238Y-80256523D01*
X162171238Y-79399380D01*
X163123619Y-80399380D02*
X163123619Y-79875571D01*
X163076000Y-79780333D01*
X162980761Y-79732714D01*
X162790285Y-79732714D01*
X162695047Y-79780333D01*
X163123619Y-80351761D02*
X163028380Y-80399380D01*
X162790285Y-80399380D01*
X162695047Y-80351761D01*
X162647428Y-80256523D01*
X162647428Y-80161285D01*
X162695047Y-80066047D01*
X162790285Y-80018428D01*
X163028380Y-80018428D01*
X163123619Y-79970809D01*
X163599809Y-80399380D02*
X163599809Y-79399380D01*
X163695047Y-80018428D02*
X163980761Y-80399380D01*
X163980761Y-79732714D02*
X163599809Y-80113666D01*
X164790285Y-80351761D02*
X164695047Y-80399380D01*
X164504571Y-80399380D01*
X164409333Y-80351761D01*
X164361714Y-80256523D01*
X164361714Y-79875571D01*
X164409333Y-79780333D01*
X164504571Y-79732714D01*
X164695047Y-79732714D01*
X164790285Y-79780333D01*
X164837904Y-79875571D01*
X164837904Y-79970809D01*
X164361714Y-80066047D01*
X165980761Y-79494619D02*
X166028380Y-79447000D01*
X166123619Y-79399380D01*
X166361714Y-79399380D01*
X166456952Y-79447000D01*
X166504571Y-79494619D01*
X166552190Y-79589857D01*
X166552190Y-79685095D01*
X166504571Y-79827952D01*
X165933142Y-80399380D01*
X166552190Y-80399380D01*
X167171238Y-79399380D02*
X167266476Y-79399380D01*
X167361714Y-79447000D01*
X167409333Y-79494619D01*
X167456952Y-79589857D01*
X167504571Y-79780333D01*
X167504571Y-80018428D01*
X167456952Y-80208904D01*
X167409333Y-80304142D01*
X167361714Y-80351761D01*
X167266476Y-80399380D01*
X167171238Y-80399380D01*
X167076000Y-80351761D01*
X167028380Y-80304142D01*
X166980761Y-80208904D01*
X166933142Y-80018428D01*
X166933142Y-79780333D01*
X166980761Y-79589857D01*
X167028380Y-79494619D01*
X167076000Y-79447000D01*
X167171238Y-79399380D01*
X167885523Y-79494619D02*
X167933142Y-79447000D01*
X168028380Y-79399380D01*
X168266476Y-79399380D01*
X168361714Y-79447000D01*
X168409333Y-79494619D01*
X168456952Y-79589857D01*
X168456952Y-79685095D01*
X168409333Y-79827952D01*
X167837904Y-80399380D01*
X168456952Y-80399380D01*
X169409333Y-80399380D02*
X168837904Y-80399380D01*
X169123619Y-80399380D02*
X169123619Y-79399380D01*
X169028380Y-79542238D01*
X168933142Y-79637476D01*
X168837904Y-79685095D01*
D11*
X155794857Y-75000857D02*
X156480571Y-75000857D01*
X156137714Y-76200857D02*
X156137714Y-75000857D01*
X156880571Y-76200857D02*
X156880571Y-75000857D01*
X157394857Y-76200857D02*
X157394857Y-75572285D01*
X157337714Y-75458000D01*
X157223428Y-75400857D01*
X157052000Y-75400857D01*
X156937714Y-75458000D01*
X156880571Y-75515142D01*
X158423428Y-76143714D02*
X158309142Y-76200857D01*
X158080571Y-76200857D01*
X157966285Y-76143714D01*
X157909142Y-76029428D01*
X157909142Y-75572285D01*
X157966285Y-75458000D01*
X158080571Y-75400857D01*
X158309142Y-75400857D01*
X158423428Y-75458000D01*
X158480571Y-75572285D01*
X158480571Y-75686571D01*
X157909142Y-75800857D01*
X159166285Y-76200857D02*
X159052000Y-76143714D01*
X158994857Y-76086571D01*
X158937714Y-75972285D01*
X158937714Y-75629428D01*
X158994857Y-75515142D01*
X159052000Y-75458000D01*
X159166285Y-75400857D01*
X159337714Y-75400857D01*
X159452000Y-75458000D01*
X159509142Y-75515142D01*
X159566285Y-75629428D01*
X159566285Y-75972285D01*
X159509142Y-76086571D01*
X159452000Y-76143714D01*
X159337714Y-76200857D01*
X159166285Y-76200857D01*
X161623428Y-75058000D02*
X161509142Y-75000857D01*
X161337714Y-75000857D01*
X161166285Y-75058000D01*
X161052000Y-75172285D01*
X160994857Y-75286571D01*
X160937714Y-75515142D01*
X160937714Y-75686571D01*
X160994857Y-75915142D01*
X161052000Y-76029428D01*
X161166285Y-76143714D01*
X161337714Y-76200857D01*
X161452000Y-76200857D01*
X161623428Y-76143714D01*
X161680571Y-76086571D01*
X161680571Y-75686571D01*
X161452000Y-75686571D01*
X162194857Y-76200857D02*
X162194857Y-75400857D01*
X162194857Y-75000857D02*
X162137714Y-75058000D01*
X162194857Y-75115142D01*
X162252000Y-75058000D01*
X162194857Y-75000857D01*
X162194857Y-75115142D01*
X162937714Y-76200857D02*
X162823428Y-76143714D01*
X162766285Y-76029428D01*
X162766285Y-75000857D01*
X163566285Y-76200857D02*
X163452000Y-76143714D01*
X163394857Y-76029428D01*
X163394857Y-75000857D01*
X164480571Y-76143714D02*
X164366285Y-76200857D01*
X164137714Y-76200857D01*
X164023428Y-76143714D01*
X163966285Y-76029428D01*
X163966285Y-75572285D01*
X164023428Y-75458000D01*
X164137714Y-75400857D01*
X164366285Y-75400857D01*
X164480571Y-75458000D01*
X164537714Y-75572285D01*
X164537714Y-75686571D01*
X163966285Y-75800857D01*
X164994857Y-76143714D02*
X165109142Y-76200857D01*
X165337714Y-76200857D01*
X165452000Y-76143714D01*
X165509142Y-76029428D01*
X165509142Y-75972285D01*
X165452000Y-75858000D01*
X165337714Y-75800857D01*
X165166285Y-75800857D01*
X165052000Y-75743714D01*
X164994857Y-75629428D01*
X164994857Y-75572285D01*
X165052000Y-75458000D01*
X165166285Y-75400857D01*
X165337714Y-75400857D01*
X165452000Y-75458000D01*
X166023428Y-75400857D02*
X166023428Y-76600857D01*
X166023428Y-75458000D02*
X166137714Y-75400857D01*
X166366285Y-75400857D01*
X166480571Y-75458000D01*
X166537714Y-75515142D01*
X166594857Y-75629428D01*
X166594857Y-75972285D01*
X166537714Y-76086571D01*
X166480571Y-76143714D01*
X166366285Y-76200857D01*
X166137714Y-76200857D01*
X166023428Y-76143714D01*
X167109142Y-76200857D02*
X167109142Y-75400857D01*
X167109142Y-75000857D02*
X167052000Y-75058000D01*
X167109142Y-75115142D01*
X167166285Y-75058000D01*
X167109142Y-75000857D01*
X167109142Y-75115142D01*
X168137714Y-76143714D02*
X168023428Y-76200857D01*
X167794857Y-76200857D01*
X167680571Y-76143714D01*
X167623428Y-76029428D01*
X167623428Y-75572285D01*
X167680571Y-75458000D01*
X167794857Y-75400857D01*
X168023428Y-75400857D01*
X168137714Y-75458000D01*
X168194857Y-75572285D01*
X168194857Y-75686571D01*
X167623428Y-75800857D01*
X155023428Y-78300857D02*
X155023428Y-77100857D01*
X155423428Y-77958000D01*
X155823428Y-77100857D01*
X155823428Y-78300857D01*
X156852000Y-78243714D02*
X156737714Y-78300857D01*
X156509142Y-78300857D01*
X156394857Y-78243714D01*
X156337714Y-78129428D01*
X156337714Y-77672285D01*
X156394857Y-77558000D01*
X156509142Y-77500857D01*
X156737714Y-77500857D01*
X156852000Y-77558000D01*
X156909142Y-77672285D01*
X156909142Y-77786571D01*
X156337714Y-77900857D01*
X157423428Y-78300857D02*
X157423428Y-77500857D01*
X157423428Y-77729428D02*
X157480571Y-77615142D01*
X157537714Y-77558000D01*
X157652000Y-77500857D01*
X157766285Y-77500857D01*
X158166285Y-78300857D02*
X158166285Y-77500857D01*
X158166285Y-77729428D02*
X158223428Y-77615142D01*
X158280571Y-77558000D01*
X158394857Y-77500857D01*
X158509142Y-77500857D01*
X158794857Y-77500857D02*
X159080571Y-78300857D01*
X159366285Y-77500857D02*
X159080571Y-78300857D01*
X158966285Y-78586571D01*
X158909142Y-78643714D01*
X158794857Y-78700857D01*
X161423428Y-78186571D02*
X161366285Y-78243714D01*
X161194857Y-78300857D01*
X161080571Y-78300857D01*
X160909142Y-78243714D01*
X160794857Y-78129428D01*
X160737714Y-78015142D01*
X160680571Y-77786571D01*
X160680571Y-77615142D01*
X160737714Y-77386571D01*
X160794857Y-77272285D01*
X160909142Y-77158000D01*
X161080571Y-77100857D01*
X161194857Y-77100857D01*
X161366285Y-77158000D01*
X161423428Y-77215142D01*
X161937714Y-78300857D02*
X161937714Y-77100857D01*
X162452000Y-78300857D02*
X162452000Y-77672285D01*
X162394857Y-77558000D01*
X162280571Y-77500857D01*
X162109142Y-77500857D01*
X161994857Y-77558000D01*
X161937714Y-77615142D01*
X163023428Y-78300857D02*
X163023428Y-77500857D01*
X163023428Y-77729428D02*
X163080571Y-77615142D01*
X163137714Y-77558000D01*
X163252000Y-77500857D01*
X163366285Y-77500857D01*
X163766285Y-78300857D02*
X163766285Y-77500857D01*
X163766285Y-77100857D02*
X163709142Y-77158000D01*
X163766285Y-77215142D01*
X163823428Y-77158000D01*
X163766285Y-77100857D01*
X163766285Y-77215142D01*
X164280571Y-78243714D02*
X164394857Y-78300857D01*
X164623428Y-78300857D01*
X164737714Y-78243714D01*
X164794857Y-78129428D01*
X164794857Y-78072285D01*
X164737714Y-77958000D01*
X164623428Y-77900857D01*
X164452000Y-77900857D01*
X164337714Y-77843714D01*
X164280571Y-77729428D01*
X164280571Y-77672285D01*
X164337714Y-77558000D01*
X164452000Y-77500857D01*
X164623428Y-77500857D01*
X164737714Y-77558000D01*
X165137714Y-77500857D02*
X165594857Y-77500857D01*
X165309142Y-77100857D02*
X165309142Y-78129428D01*
X165366285Y-78243714D01*
X165480571Y-78300857D01*
X165594857Y-78300857D01*
X165994857Y-78300857D02*
X165994857Y-77500857D01*
X165994857Y-77615142D02*
X166052000Y-77558000D01*
X166166285Y-77500857D01*
X166337714Y-77500857D01*
X166452000Y-77558000D01*
X166509142Y-77672285D01*
X166509142Y-78300857D01*
X166509142Y-77672285D02*
X166566285Y-77558000D01*
X166680571Y-77500857D01*
X166852000Y-77500857D01*
X166966285Y-77558000D01*
X167023428Y-77672285D01*
X167023428Y-78300857D01*
X168109142Y-78300857D02*
X168109142Y-77672285D01*
X168052000Y-77558000D01*
X167937714Y-77500857D01*
X167709142Y-77500857D01*
X167594857Y-77558000D01*
X168109142Y-78243714D02*
X167994857Y-78300857D01*
X167709142Y-78300857D01*
X167594857Y-78243714D01*
X167537714Y-78129428D01*
X167537714Y-78015142D01*
X167594857Y-77900857D01*
X167709142Y-77843714D01*
X167994857Y-77843714D01*
X168109142Y-77786571D01*
X168623428Y-78243714D02*
X168737714Y-78300857D01*
X168966285Y-78300857D01*
X169080571Y-78243714D01*
X169137714Y-78129428D01*
X169137714Y-78072285D01*
X169080571Y-77958000D01*
X168966285Y-77900857D01*
X168794857Y-77900857D01*
X168680571Y-77843714D01*
X168623428Y-77729428D01*
X168623428Y-77672285D01*
X168680571Y-77558000D01*
X168794857Y-77500857D01*
X168966285Y-77500857D01*
X169080571Y-77558000D01*
D12*
%TO.C,SW1*%
X142535400Y-114775600D02*
X152435400Y-114775600D01*
X142535400Y-119615600D02*
X152435400Y-119615600D01*
X142535400Y-114775600D02*
X142535400Y-116395600D01*
X142535400Y-117995600D02*
X142535400Y-119615600D01*
X152435400Y-114775600D02*
X152435400Y-116395600D01*
X152435400Y-117995600D02*
X152435400Y-119615600D01*
X142295400Y-114535600D02*
X143679400Y-114535600D01*
X142295400Y-114535600D02*
X142295400Y-115918600D01*
X145455400Y-116560600D02*
X145455400Y-117830600D01*
X145455400Y-117830600D02*
X149515400Y-117830600D01*
X149515400Y-117830600D02*
X149515400Y-116560600D01*
X149515400Y-116560600D02*
X145455400Y-116560600D01*
X145455400Y-116680600D02*
X146808733Y-116680600D01*
X145455400Y-116800600D02*
X146808733Y-116800600D01*
X145455400Y-116920600D02*
X146808733Y-116920600D01*
X145455400Y-117040600D02*
X146808733Y-117040600D01*
X145455400Y-117160600D02*
X146808733Y-117160600D01*
X145455400Y-117280600D02*
X146808733Y-117280600D01*
X145455400Y-117400600D02*
X146808733Y-117400600D01*
X145455400Y-117520600D02*
X146808733Y-117520600D01*
X145455400Y-117640600D02*
X146808733Y-117640600D01*
X145455400Y-117760600D02*
X146808733Y-117760600D01*
X146808733Y-116560600D02*
X146808733Y-117830600D01*
%TO.C,J1*%
X176590000Y-100390000D02*
X176590000Y-95190000D01*
X171450000Y-100390000D02*
X176590000Y-100390000D01*
X168850000Y-95190000D02*
X176590000Y-95190000D01*
X171450000Y-100390000D02*
X171450000Y-97790000D01*
X171450000Y-97790000D02*
X168850000Y-97790000D01*
X168850000Y-97790000D02*
X168850000Y-95190000D01*
X170180000Y-100390000D02*
X168850000Y-100390000D01*
X168850000Y-100390000D02*
X168850000Y-99060000D01*
%TO.C,D3*%
X181057211Y-79067907D02*
X180061282Y-79642907D01*
X184707211Y-85389893D02*
X181057211Y-79067907D01*
X179944071Y-88139893D02*
X176294071Y-81817907D01*
%TO.C,D2*%
X183695670Y-112514007D02*
X182699741Y-111939007D01*
X180045670Y-118835993D02*
X183695670Y-112514007D01*
X175282530Y-116085993D02*
X178932530Y-109764007D01*
%TO.C,C1*%
X143864420Y-112778000D02*
X144145580Y-112778000D01*
X143864420Y-111758000D02*
X144145580Y-111758000D01*
%TO.C,C2*%
X143864420Y-109726000D02*
X144145580Y-109726000D01*
X143864420Y-110746000D02*
X144145580Y-110746000D01*
%TO.C,D1*%
X150528000Y-126155000D02*
X157828000Y-126155000D01*
X150528000Y-131655000D02*
X157828000Y-131655000D01*
X157828000Y-131655000D02*
X157828000Y-130505000D01*
%TO.C,D4*%
X157574000Y-143212000D02*
X157574000Y-142062000D01*
X150274000Y-143212000D02*
X157574000Y-143212000D01*
X150274000Y-137712000D02*
X157574000Y-137712000D01*
%TO.C,D5*%
X185023430Y-121915093D02*
X188673430Y-115593107D01*
X189786570Y-124665093D02*
X193436570Y-118343107D01*
X193436570Y-118343107D02*
X192440641Y-117768107D01*
%TO.C,D6*%
X189308430Y-82005993D02*
X185658430Y-75684007D01*
X194071570Y-79255993D02*
X190421570Y-72934007D01*
X190421570Y-72934007D02*
X189425641Y-73509007D01*
%TO.C,D7*%
X157535900Y-155150000D02*
X157535900Y-154000000D01*
X150235900Y-155150000D02*
X157535900Y-155150000D01*
X150235900Y-149650000D02*
X157535900Y-149650000D01*
%TO.C,D8*%
X204866570Y-123944007D02*
X203870641Y-123369007D01*
X201216570Y-130265993D02*
X204866570Y-123944007D01*
X196453430Y-127515993D02*
X200103430Y-121194007D01*
%TO.C,D9*%
X200862070Y-67625207D02*
X199866141Y-68200207D01*
X204512070Y-73947193D02*
X200862070Y-67625207D01*
X199748930Y-76697193D02*
X196098930Y-70375207D01*
%TO.C,D10*%
X150020000Y-161080000D02*
X157320000Y-161080000D01*
X150020000Y-166580000D02*
X157320000Y-166580000D01*
X157320000Y-166580000D02*
X157320000Y-165430000D01*
%TO.C,D11*%
X206613430Y-132595993D02*
X210263430Y-126274007D01*
X211376570Y-135345993D02*
X215026570Y-129024007D01*
X215026570Y-129024007D02*
X214030641Y-128449007D01*
%TO.C,D12*%
X211262270Y-61313507D02*
X210266341Y-61888507D01*
X214912270Y-67635493D02*
X211262270Y-61313507D01*
X210149130Y-70385493D02*
X206499130Y-64063507D01*
%TO.C,D13*%
X150020000Y-65830000D02*
X157320000Y-65830000D01*
X150020000Y-71330000D02*
X157320000Y-71330000D01*
X157320000Y-71330000D02*
X157320000Y-70180000D01*
%TO.C,D14*%
X124063430Y-85605993D02*
X125059359Y-86180993D01*
X127713430Y-79284007D02*
X124063430Y-85605993D01*
X132476570Y-82034007D02*
X128826570Y-88355993D01*
%TO.C,D15*%
X127713430Y-117565993D02*
X128709359Y-116990993D01*
X124063430Y-111244007D02*
X127713430Y-117565993D01*
X128826570Y-108494007D02*
X132476570Y-114815993D01*
%TO.C,D16*%
X150210500Y-54400000D02*
X157510500Y-54400000D01*
X150210500Y-59900000D02*
X157510500Y-59900000D01*
X157510500Y-59900000D02*
X157510500Y-58750000D01*
%TO.C,D17*%
X122316570Y-75684007D02*
X118666570Y-82005993D01*
X117553430Y-72934007D02*
X113903430Y-79255993D01*
X113903430Y-79255993D02*
X114899359Y-79830993D01*
%TO.C,D18*%
X118666570Y-114844007D02*
X122316570Y-121165993D01*
X113903430Y-117594007D02*
X117553430Y-123915993D01*
X117553430Y-123915993D02*
X118549359Y-123340993D01*
%TO.C,D19*%
X157320000Y-48470000D02*
X157320000Y-47320000D01*
X150020000Y-48470000D02*
X157320000Y-48470000D01*
X150020000Y-42970000D02*
X157320000Y-42970000D01*
%TO.C,D20*%
X103582789Y-73794231D02*
X104578718Y-74369231D01*
X107232789Y-67472245D02*
X103582789Y-73794231D01*
X111995929Y-70222245D02*
X108345929Y-76544231D01*
%TO.C,D21*%
X107393430Y-130265993D02*
X108389359Y-129690993D01*
X103743430Y-123944007D02*
X107393430Y-130265993D01*
X108506570Y-121194007D02*
X112156570Y-127515993D01*
%TO.C,D22*%
X150020000Y-30270000D02*
X157320000Y-30270000D01*
X150020000Y-35770000D02*
X157320000Y-35770000D01*
X157320000Y-35770000D02*
X157320000Y-34620000D01*
%TO.C,D23*%
X101996570Y-64254007D02*
X98346570Y-70575993D01*
X97233430Y-61504007D02*
X93583430Y-67825993D01*
X93583430Y-67825993D02*
X94579359Y-68400993D01*
%TO.C,D24*%
X98346570Y-126274007D02*
X101996570Y-132595993D01*
X93583430Y-129024007D02*
X97233430Y-135345993D01*
X97233430Y-135345993D02*
X98229359Y-134770993D01*
%TO.C,J2*%
X162750907Y-116550916D02*
X162975907Y-116940628D01*
X162750907Y-116550916D02*
X163140618Y-116325916D01*
X167875649Y-114227230D02*
X167485938Y-114452230D01*
X168800649Y-115829377D02*
X167875649Y-114227230D01*
X163320651Y-121937742D02*
X163195651Y-121721236D01*
X170075649Y-118037742D02*
X169950649Y-117821236D01*
X162045651Y-119729377D02*
X161120651Y-118127230D01*
X161120651Y-118127230D02*
X161510362Y-117902230D01*
%TO.C,U1*%
X153735000Y-94625000D02*
X150285000Y-94625000D01*
X153735000Y-94625000D02*
X155685000Y-94625000D01*
X153735000Y-103495000D02*
X151785000Y-103495000D01*
X153735000Y-103495000D02*
X155685000Y-103495000D01*
%TO.C,D25*%
X141856000Y-105538000D02*
X147256000Y-105538000D01*
X141856000Y-108838000D02*
X147256000Y-108838000D01*
X141856000Y-105538000D02*
X141856000Y-108838000D01*
%TO.C,SW1*%
D10*
X146152066Y-114490361D02*
X146294923Y-114537980D01*
X146533019Y-114537980D01*
X146628257Y-114490361D01*
X146675876Y-114442742D01*
X146723495Y-114347504D01*
X146723495Y-114252266D01*
X146675876Y-114157028D01*
X146628257Y-114109409D01*
X146533019Y-114061790D01*
X146342542Y-114014171D01*
X146247304Y-113966552D01*
X146199685Y-113918933D01*
X146152066Y-113823695D01*
X146152066Y-113728457D01*
X146199685Y-113633219D01*
X146247304Y-113585600D01*
X146342542Y-113537980D01*
X146580638Y-113537980D01*
X146723495Y-113585600D01*
X147056828Y-113537980D02*
X147294923Y-114537980D01*
X147485400Y-113823695D01*
X147675876Y-114537980D01*
X147913971Y-113537980D01*
X148818733Y-114537980D02*
X148247304Y-114537980D01*
X148533019Y-114537980D02*
X148533019Y-113537980D01*
X148437780Y-113680838D01*
X148342542Y-113776076D01*
X148247304Y-113823695D01*
%TO.C,J1*%
X164762380Y-99393333D02*
X165476666Y-99393333D01*
X165619523Y-99440952D01*
X165714761Y-99536190D01*
X165762380Y-99679047D01*
X165762380Y-99774285D01*
X165762380Y-98393333D02*
X165762380Y-98964761D01*
X165762380Y-98679047D02*
X164762380Y-98679047D01*
X164905238Y-98774285D01*
X165000476Y-98869523D01*
X165048095Y-98964761D01*
%TO.C,D3*%
X176708730Y-84940881D02*
X177574756Y-84440881D01*
X177693804Y-84647077D01*
X177723993Y-84794605D01*
X177689133Y-84924702D01*
X177630464Y-85013561D01*
X177489316Y-85150038D01*
X177365599Y-85221467D01*
X177176832Y-85275465D01*
X177070544Y-85281845D01*
X176940446Y-85246986D01*
X176827778Y-85147077D01*
X176708730Y-84940881D01*
X178027137Y-85224428D02*
X178336661Y-85760539D01*
X177840080Y-85662340D01*
X177911508Y-85786057D01*
X177917888Y-85892346D01*
X177900458Y-85957394D01*
X177841789Y-86046253D01*
X177635592Y-86165300D01*
X177529304Y-86171680D01*
X177464256Y-86154250D01*
X177375397Y-86095581D01*
X177232540Y-85848145D01*
X177226160Y-85741857D01*
X177243590Y-85676808D01*
X180941083Y-88471531D02*
X180655369Y-87976659D01*
X180798226Y-88224095D02*
X181664252Y-87724095D01*
X181492915Y-87713045D01*
X181362817Y-87678185D01*
X181273959Y-87619516D01*
%TO.C,D2*%
X176480736Y-113415399D02*
X175614711Y-112915399D01*
X175733758Y-112709203D01*
X175846426Y-112609294D01*
X175976524Y-112574435D01*
X176082812Y-112580814D01*
X176271579Y-112634813D01*
X176395297Y-112706242D01*
X176536445Y-112842719D01*
X176595114Y-112931578D01*
X176629973Y-113061675D01*
X176599784Y-113209203D01*
X176480736Y-113415399D01*
X176173380Y-112138232D02*
X176155950Y-112073183D01*
X176162330Y-111966895D01*
X176281378Y-111760699D01*
X176370236Y-111702030D01*
X176435285Y-111684600D01*
X176541573Y-111690980D01*
X176624051Y-111738599D01*
X176723960Y-111851266D01*
X176933117Y-112631852D01*
X177242641Y-112095741D01*
X176563089Y-117072759D02*
X176277375Y-117567631D01*
X176420232Y-117320195D02*
X175554206Y-116820195D01*
X175630305Y-116974102D01*
X175665165Y-117104200D01*
X175658785Y-117210488D01*
%TO.C,C1*%
X143838333Y-111195142D02*
X143790714Y-111242761D01*
X143647857Y-111290380D01*
X143552619Y-111290380D01*
X143409761Y-111242761D01*
X143314523Y-111147523D01*
X143266904Y-111052285D01*
X143219285Y-110861809D01*
X143219285Y-110718952D01*
X143266904Y-110528476D01*
X143314523Y-110433238D01*
X143409761Y-110338000D01*
X143552619Y-110290380D01*
X143647857Y-110290380D01*
X143790714Y-110338000D01*
X143838333Y-110385619D01*
X144790714Y-111290380D02*
X144219285Y-111290380D01*
X144505000Y-111290380D02*
X144505000Y-110290380D01*
X144409761Y-110433238D01*
X144314523Y-110528476D01*
X144219285Y-110576095D01*
%TO.C,C2*%
X143838333Y-109163142D02*
X143790714Y-109210761D01*
X143647857Y-109258380D01*
X143552619Y-109258380D01*
X143409761Y-109210761D01*
X143314523Y-109115523D01*
X143266904Y-109020285D01*
X143219285Y-108829809D01*
X143219285Y-108686952D01*
X143266904Y-108496476D01*
X143314523Y-108401238D01*
X143409761Y-108306000D01*
X143552619Y-108258380D01*
X143647857Y-108258380D01*
X143790714Y-108306000D01*
X143838333Y-108353619D01*
X144219285Y-108353619D02*
X144266904Y-108306000D01*
X144362142Y-108258380D01*
X144600238Y-108258380D01*
X144695476Y-108306000D01*
X144743095Y-108353619D01*
X144790714Y-108448857D01*
X144790714Y-108544095D01*
X144743095Y-108686952D01*
X144171666Y-109258380D01*
X144790714Y-109258380D01*
%TO.C,D1*%
X153439904Y-125857380D02*
X153439904Y-124857380D01*
X153678000Y-124857380D01*
X153820857Y-124905000D01*
X153916095Y-125000238D01*
X153963714Y-125095476D01*
X154011333Y-125285952D01*
X154011333Y-125428809D01*
X153963714Y-125619285D01*
X153916095Y-125714523D01*
X153820857Y-125809761D01*
X153678000Y-125857380D01*
X153439904Y-125857380D01*
X154963714Y-125857380D02*
X154392285Y-125857380D01*
X154678000Y-125857380D02*
X154678000Y-124857380D01*
X154582761Y-125000238D01*
X154487523Y-125095476D01*
X154392285Y-125143095D01*
X150313714Y-127757380D02*
X149742285Y-127757380D01*
X150028000Y-127757380D02*
X150028000Y-126757380D01*
X149932761Y-126900238D01*
X149837523Y-126995476D01*
X149742285Y-127043095D01*
%TO.C,D4*%
X153185904Y-137414380D02*
X153185904Y-136414380D01*
X153424000Y-136414380D01*
X153566857Y-136462000D01*
X153662095Y-136557238D01*
X153709714Y-136652476D01*
X153757333Y-136842952D01*
X153757333Y-136985809D01*
X153709714Y-137176285D01*
X153662095Y-137271523D01*
X153566857Y-137366761D01*
X153424000Y-137414380D01*
X153185904Y-137414380D01*
X154614476Y-136747714D02*
X154614476Y-137414380D01*
X154376380Y-136366761D02*
X154138285Y-137081047D01*
X154757333Y-137081047D01*
X150059714Y-139314380D02*
X149488285Y-139314380D01*
X149774000Y-139314380D02*
X149774000Y-138314380D01*
X149678761Y-138457238D01*
X149583523Y-138552476D01*
X149488285Y-138600095D01*
%TO.C,D5*%
X186221636Y-119244499D02*
X185355611Y-118744499D01*
X185474658Y-118538303D01*
X185587326Y-118438394D01*
X185717424Y-118403535D01*
X185823712Y-118409914D01*
X186012479Y-118463913D01*
X186136197Y-118535342D01*
X186277345Y-118671819D01*
X186336014Y-118760678D01*
X186370873Y-118890775D01*
X186340684Y-119038303D01*
X186221636Y-119244499D01*
X186093706Y-117466081D02*
X185855611Y-117878474D01*
X186244194Y-118157808D01*
X186226765Y-118092760D01*
X186233144Y-117986471D01*
X186352192Y-117780275D01*
X186441050Y-117721606D01*
X186506099Y-117704176D01*
X186612387Y-117710556D01*
X186818584Y-117829603D01*
X186877253Y-117918462D01*
X186894683Y-117983511D01*
X186888303Y-118089799D01*
X186769255Y-118295995D01*
X186680397Y-118354664D01*
X186615348Y-118372094D01*
X186303989Y-122901859D02*
X186018275Y-123396731D01*
X186161132Y-123149295D02*
X185295106Y-122649295D01*
X185371205Y-122803202D01*
X185406065Y-122933300D01*
X185399685Y-123039588D01*
%TO.C,D6*%
X186073089Y-78806981D02*
X186939115Y-78306981D01*
X187058163Y-78513177D01*
X187088352Y-78660705D01*
X187053492Y-78790802D01*
X186994823Y-78879661D01*
X186853675Y-79016138D01*
X186729958Y-79087567D01*
X186541191Y-79141565D01*
X186434903Y-79147945D01*
X186304805Y-79113086D01*
X186192137Y-79013177D01*
X186073089Y-78806981D01*
X187653401Y-79544160D02*
X187558163Y-79379203D01*
X187469304Y-79320534D01*
X187404255Y-79303104D01*
X187232918Y-79292054D01*
X187044152Y-79346053D01*
X186714237Y-79536529D01*
X186655568Y-79625387D01*
X186638138Y-79690436D01*
X186644518Y-79796724D01*
X186739756Y-79961681D01*
X186828615Y-80020350D01*
X186893663Y-80037780D01*
X186999951Y-80031400D01*
X187206148Y-79912353D01*
X187264817Y-79823494D01*
X187282247Y-79758446D01*
X187275867Y-79652157D01*
X187180629Y-79487200D01*
X187091771Y-79428531D01*
X187026722Y-79411101D01*
X186920434Y-79417481D01*
X190305442Y-82337631D02*
X190019728Y-81842759D01*
X190162585Y-82090195D02*
X191028611Y-81590195D01*
X190857274Y-81579145D01*
X190727176Y-81544285D01*
X190638318Y-81485616D01*
%TO.C,D7*%
X153147804Y-149352380D02*
X153147804Y-148352380D01*
X153385900Y-148352380D01*
X153528757Y-148400000D01*
X153623995Y-148495238D01*
X153671614Y-148590476D01*
X153719233Y-148780952D01*
X153719233Y-148923809D01*
X153671614Y-149114285D01*
X153623995Y-149209523D01*
X153528757Y-149304761D01*
X153385900Y-149352380D01*
X153147804Y-149352380D01*
X154052566Y-148352380D02*
X154719233Y-148352380D01*
X154290661Y-149352380D01*
X150021614Y-151252380D02*
X149450185Y-151252380D01*
X149735900Y-151252380D02*
X149735900Y-150252380D01*
X149640661Y-150395238D01*
X149545423Y-150490476D01*
X149450185Y-150538095D01*
%TO.C,D8*%
X197651636Y-124845399D02*
X196785611Y-124345399D01*
X196904658Y-124139203D01*
X197017326Y-124039294D01*
X197147424Y-124004435D01*
X197253712Y-124010814D01*
X197442479Y-124064813D01*
X197566197Y-124136242D01*
X197707345Y-124272719D01*
X197766014Y-124361578D01*
X197800873Y-124491675D01*
X197770684Y-124639203D01*
X197651636Y-124845399D01*
X197728193Y-123569942D02*
X197639335Y-123628611D01*
X197574286Y-123646040D01*
X197467998Y-123639661D01*
X197426759Y-123615851D01*
X197368089Y-123526993D01*
X197350660Y-123461944D01*
X197357039Y-123355656D01*
X197452278Y-123190699D01*
X197541136Y-123132030D01*
X197606185Y-123114600D01*
X197712473Y-123120980D01*
X197753712Y-123144789D01*
X197812381Y-123233647D01*
X197829811Y-123298696D01*
X197823431Y-123404984D01*
X197728193Y-123569942D01*
X197721813Y-123676230D01*
X197739243Y-123741279D01*
X197797912Y-123830137D01*
X197962870Y-123925375D01*
X198069158Y-123931755D01*
X198134206Y-123914325D01*
X198223065Y-123855656D01*
X198318303Y-123690699D01*
X198324683Y-123584411D01*
X198307253Y-123519362D01*
X198248584Y-123430503D01*
X198083627Y-123335265D01*
X197977338Y-123328886D01*
X197912290Y-123346315D01*
X197823431Y-123404984D01*
X197733989Y-128502759D02*
X197448275Y-128997631D01*
X197591132Y-128750195D02*
X196725106Y-128250195D01*
X196801205Y-128404102D01*
X196836065Y-128534200D01*
X196829685Y-128640488D01*
%TO.C,D9*%
X196513589Y-73498181D02*
X197379615Y-72998181D01*
X197498663Y-73204377D01*
X197528852Y-73351905D01*
X197493992Y-73482002D01*
X197435323Y-73570861D01*
X197294175Y-73707338D01*
X197170458Y-73778767D01*
X196981691Y-73832765D01*
X196875403Y-73839145D01*
X196745305Y-73804286D01*
X196632637Y-73704377D01*
X196513589Y-73498181D01*
X197037399Y-74405445D02*
X197132637Y-74570403D01*
X197221495Y-74629072D01*
X197286544Y-74646502D01*
X197457881Y-74657552D01*
X197646648Y-74603553D01*
X197976562Y-74413077D01*
X198035232Y-74324218D01*
X198052661Y-74259169D01*
X198046282Y-74152881D01*
X197951043Y-73987924D01*
X197862185Y-73929255D01*
X197797136Y-73911825D01*
X197690848Y-73918205D01*
X197484652Y-74037253D01*
X197425983Y-74126111D01*
X197408553Y-74191160D01*
X197414932Y-74297448D01*
X197510171Y-74462405D01*
X197599029Y-74521074D01*
X197664078Y-74538504D01*
X197770366Y-74532124D01*
X200745942Y-77028831D02*
X200460228Y-76533959D01*
X200603085Y-76781395D02*
X201469111Y-76281395D01*
X201297774Y-76270345D01*
X201167676Y-76235485D01*
X201078818Y-76176816D01*
%TO.C,D10*%
X152455714Y-160782380D02*
X152455714Y-159782380D01*
X152693809Y-159782380D01*
X152836666Y-159830000D01*
X152931904Y-159925238D01*
X152979523Y-160020476D01*
X153027142Y-160210952D01*
X153027142Y-160353809D01*
X152979523Y-160544285D01*
X152931904Y-160639523D01*
X152836666Y-160734761D01*
X152693809Y-160782380D01*
X152455714Y-160782380D01*
X153979523Y-160782380D02*
X153408095Y-160782380D01*
X153693809Y-160782380D02*
X153693809Y-159782380D01*
X153598571Y-159925238D01*
X153503333Y-160020476D01*
X153408095Y-160068095D01*
X154598571Y-159782380D02*
X154693809Y-159782380D01*
X154789047Y-159830000D01*
X154836666Y-159877619D01*
X154884285Y-159972857D01*
X154931904Y-160163333D01*
X154931904Y-160401428D01*
X154884285Y-160591904D01*
X154836666Y-160687142D01*
X154789047Y-160734761D01*
X154693809Y-160782380D01*
X154598571Y-160782380D01*
X154503333Y-160734761D01*
X154455714Y-160687142D01*
X154408095Y-160591904D01*
X154360476Y-160401428D01*
X154360476Y-160163333D01*
X154408095Y-159972857D01*
X154455714Y-159877619D01*
X154503333Y-159830000D01*
X154598571Y-159782380D01*
X149805714Y-162682380D02*
X149234285Y-162682380D01*
X149520000Y-162682380D02*
X149520000Y-161682380D01*
X149424761Y-161825238D01*
X149329523Y-161920476D01*
X149234285Y-161968095D01*
%TO.C,D11*%
X207573541Y-130337792D02*
X206707516Y-129837792D01*
X206826563Y-129631596D01*
X206939231Y-129531687D01*
X207069329Y-129496828D01*
X207175617Y-129503208D01*
X207364384Y-129557206D01*
X207488102Y-129628635D01*
X207629249Y-129765112D01*
X207687918Y-129853971D01*
X207722778Y-129984068D01*
X207692589Y-130131596D01*
X207573541Y-130337792D01*
X208335446Y-129018134D02*
X208049732Y-129513006D01*
X208192589Y-129265570D02*
X207326563Y-128765570D01*
X207402662Y-128919478D01*
X207437522Y-129049575D01*
X207431142Y-129155863D01*
X208811636Y-128193348D02*
X208525922Y-128688220D01*
X208668779Y-128440784D02*
X207802754Y-127940784D01*
X207878853Y-128094691D01*
X207913712Y-128224789D01*
X207907332Y-128331077D01*
X207893989Y-133582759D02*
X207608275Y-134077631D01*
X207751132Y-133830195D02*
X206885106Y-133330195D01*
X206961205Y-133484102D01*
X206996065Y-133614200D01*
X206989685Y-133720488D01*
%TO.C,D12*%
X206675694Y-66774088D02*
X207541720Y-66274088D01*
X207660767Y-66480284D01*
X207690957Y-66627812D01*
X207656097Y-66757909D01*
X207597428Y-66846768D01*
X207456280Y-66983245D01*
X207332562Y-67054674D01*
X207143796Y-67108672D01*
X207037507Y-67115052D01*
X206907410Y-67080193D01*
X206794742Y-66980284D01*
X206675694Y-66774088D01*
X207437599Y-68093745D02*
X207151885Y-67598874D01*
X207294742Y-67846310D02*
X208160767Y-67346310D01*
X207989430Y-67335260D01*
X207859333Y-67300400D01*
X207770474Y-67241731D01*
X208411622Y-67971279D02*
X208476671Y-67988709D01*
X208565529Y-68047378D01*
X208684577Y-68253574D01*
X208690957Y-68359862D01*
X208673527Y-68424911D01*
X208614858Y-68513770D01*
X208532379Y-68561389D01*
X208384852Y-68591578D01*
X207604266Y-68382421D01*
X207913789Y-68918532D01*
X211146142Y-70717131D02*
X210860428Y-70222259D01*
X211003285Y-70469695D02*
X211869311Y-69969695D01*
X211697974Y-69958645D01*
X211567876Y-69923785D01*
X211479018Y-69865116D01*
%TO.C,D13*%
X152455714Y-65532380D02*
X152455714Y-64532380D01*
X152693809Y-64532380D01*
X152836666Y-64580000D01*
X152931904Y-64675238D01*
X152979523Y-64770476D01*
X153027142Y-64960952D01*
X153027142Y-65103809D01*
X152979523Y-65294285D01*
X152931904Y-65389523D01*
X152836666Y-65484761D01*
X152693809Y-65532380D01*
X152455714Y-65532380D01*
X153979523Y-65532380D02*
X153408095Y-65532380D01*
X153693809Y-65532380D02*
X153693809Y-64532380D01*
X153598571Y-64675238D01*
X153503333Y-64770476D01*
X153408095Y-64818095D01*
X154312857Y-64532380D02*
X154931904Y-64532380D01*
X154598571Y-64913333D01*
X154741428Y-64913333D01*
X154836666Y-64960952D01*
X154884285Y-65008571D01*
X154931904Y-65103809D01*
X154931904Y-65341904D01*
X154884285Y-65437142D01*
X154836666Y-65484761D01*
X154741428Y-65532380D01*
X154455714Y-65532380D01*
X154360476Y-65484761D01*
X154312857Y-65437142D01*
X149805714Y-67432380D02*
X149234285Y-67432380D01*
X149520000Y-67432380D02*
X149520000Y-66432380D01*
X149424761Y-66575238D01*
X149329523Y-66670476D01*
X149234285Y-66718095D01*
%TO.C,D14*%
X131085719Y-86847792D02*
X130219694Y-86347792D01*
X130338741Y-86141596D01*
X130451409Y-86041687D01*
X130581507Y-86006828D01*
X130687795Y-86013208D01*
X130876562Y-86067206D01*
X131000280Y-86138635D01*
X131141427Y-86275112D01*
X131200096Y-86363971D01*
X131234956Y-86494068D01*
X131204767Y-86641596D01*
X131085719Y-86847792D01*
X131847624Y-85528134D02*
X131561910Y-86023006D01*
X131704767Y-85775570D02*
X130838741Y-85275570D01*
X130914840Y-85429478D01*
X130949700Y-85559575D01*
X130943320Y-85665863D01*
X131698845Y-84452494D02*
X132276195Y-84785827D01*
X131249883Y-84468214D02*
X131749425Y-85031553D01*
X132058949Y-84495442D01*
X132265271Y-81004749D02*
X131979557Y-81499621D01*
X132122414Y-81252185D02*
X131256388Y-80752185D01*
X131332487Y-80906092D01*
X131367347Y-81036190D01*
X131360967Y-81142478D01*
%TO.C,D15*%
X130302172Y-110454588D02*
X131168198Y-109954588D01*
X131287245Y-110160784D01*
X131317435Y-110308312D01*
X131282575Y-110438409D01*
X131223906Y-110527268D01*
X131082758Y-110663745D01*
X130959040Y-110735174D01*
X130770274Y-110789172D01*
X130663985Y-110795552D01*
X130533888Y-110760693D01*
X130421220Y-110660784D01*
X130302172Y-110454588D01*
X131064077Y-111774245D02*
X130778363Y-111279374D01*
X130921220Y-111526810D02*
X131787245Y-111026810D01*
X131615908Y-111015760D01*
X131485811Y-110980900D01*
X131396952Y-110922231D01*
X132382483Y-112057792D02*
X132144388Y-111645399D01*
X131708186Y-111842255D01*
X131773234Y-111859685D01*
X131862093Y-111918354D01*
X131981140Y-112124551D01*
X131987520Y-112230839D01*
X131970090Y-112295887D01*
X131911421Y-112384746D01*
X131705225Y-112503793D01*
X131598937Y-112510173D01*
X131533888Y-112492743D01*
X131445029Y-112434074D01*
X131325982Y-112227878D01*
X131319602Y-112121590D01*
X131337032Y-112056541D01*
X127331724Y-109109621D02*
X127046010Y-108614749D01*
X127188867Y-108862185D02*
X128054893Y-108362185D01*
X127883556Y-108351135D01*
X127753458Y-108316275D01*
X127664600Y-108257606D01*
%TO.C,D16*%
X152646214Y-54102380D02*
X152646214Y-53102380D01*
X152884309Y-53102380D01*
X153027166Y-53150000D01*
X153122404Y-53245238D01*
X153170023Y-53340476D01*
X153217642Y-53530952D01*
X153217642Y-53673809D01*
X153170023Y-53864285D01*
X153122404Y-53959523D01*
X153027166Y-54054761D01*
X152884309Y-54102380D01*
X152646214Y-54102380D01*
X154170023Y-54102380D02*
X153598595Y-54102380D01*
X153884309Y-54102380D02*
X153884309Y-53102380D01*
X153789071Y-53245238D01*
X153693833Y-53340476D01*
X153598595Y-53388095D01*
X155027166Y-53102380D02*
X154836690Y-53102380D01*
X154741452Y-53150000D01*
X154693833Y-53197619D01*
X154598595Y-53340476D01*
X154550976Y-53530952D01*
X154550976Y-53911904D01*
X154598595Y-54007142D01*
X154646214Y-54054761D01*
X154741452Y-54102380D01*
X154931928Y-54102380D01*
X155027166Y-54054761D01*
X155074785Y-54007142D01*
X155122404Y-53911904D01*
X155122404Y-53673809D01*
X155074785Y-53578571D01*
X155027166Y-53530952D01*
X154931928Y-53483333D01*
X154741452Y-53483333D01*
X154646214Y-53530952D01*
X154598595Y-53578571D01*
X154550976Y-53673809D01*
X149996214Y-56002380D02*
X149424785Y-56002380D01*
X149710500Y-56002380D02*
X149710500Y-55002380D01*
X149615261Y-55145238D01*
X149520023Y-55240476D01*
X149424785Y-55288095D01*
%TO.C,D17*%
X120925719Y-80497792D02*
X120059694Y-79997792D01*
X120178741Y-79791596D01*
X120291409Y-79691687D01*
X120421507Y-79656828D01*
X120527795Y-79663208D01*
X120716562Y-79717206D01*
X120840280Y-79788635D01*
X120981427Y-79925112D01*
X121040096Y-80013971D01*
X121074956Y-80144068D01*
X121044767Y-80291596D01*
X120925719Y-80497792D01*
X121687624Y-79178134D02*
X121401910Y-79673006D01*
X121544767Y-79425570D02*
X120678741Y-78925570D01*
X120754840Y-79079478D01*
X120789700Y-79209575D01*
X120783320Y-79315863D01*
X120988265Y-78389459D02*
X121321598Y-77812109D01*
X121973338Y-78683263D01*
X122105271Y-74654749D02*
X121819557Y-75149621D01*
X121962414Y-74902185D02*
X121096388Y-74402185D01*
X121172487Y-74556092D01*
X121207347Y-74686190D01*
X121200967Y-74792478D01*
%TO.C,D18*%
X120142172Y-116804588D02*
X121008198Y-116304588D01*
X121127245Y-116510784D01*
X121157435Y-116658312D01*
X121122575Y-116788409D01*
X121063906Y-116877268D01*
X120922758Y-117013745D01*
X120799040Y-117085174D01*
X120610274Y-117139172D01*
X120503985Y-117145552D01*
X120373888Y-117110693D01*
X120261220Y-117010784D01*
X120142172Y-116804588D01*
X120904077Y-118124245D02*
X120618363Y-117629374D01*
X120761220Y-117876810D02*
X121627245Y-117376810D01*
X121455908Y-117365760D01*
X121325811Y-117330900D01*
X121236952Y-117272231D01*
X121684663Y-118333403D02*
X121678283Y-118227115D01*
X121695713Y-118162066D01*
X121754382Y-118073208D01*
X121795621Y-118049398D01*
X121901910Y-118043018D01*
X121966958Y-118060448D01*
X122055817Y-118119117D01*
X122151055Y-118284074D01*
X122157435Y-118390362D01*
X122140005Y-118455411D01*
X122081336Y-118544270D01*
X122040096Y-118568079D01*
X121933808Y-118574459D01*
X121868759Y-118557029D01*
X121779901Y-118498360D01*
X121684663Y-118333403D01*
X121595805Y-118274734D01*
X121530756Y-118257304D01*
X121424468Y-118263684D01*
X121259510Y-118358922D01*
X121200841Y-118447780D01*
X121183412Y-118512829D01*
X121189791Y-118619117D01*
X121285029Y-118784074D01*
X121373888Y-118842743D01*
X121438937Y-118860173D01*
X121545225Y-118853793D01*
X121710182Y-118758555D01*
X121768851Y-118669697D01*
X121786281Y-118604648D01*
X121779901Y-118498360D01*
X117171724Y-115459621D02*
X116886010Y-114964749D01*
X117028867Y-115212185D02*
X117894893Y-114712185D01*
X117723556Y-114701135D01*
X117593458Y-114666275D01*
X117504600Y-114607606D01*
%TO.C,D19*%
X152455714Y-42672380D02*
X152455714Y-41672380D01*
X152693809Y-41672380D01*
X152836666Y-41720000D01*
X152931904Y-41815238D01*
X152979523Y-41910476D01*
X153027142Y-42100952D01*
X153027142Y-42243809D01*
X152979523Y-42434285D01*
X152931904Y-42529523D01*
X152836666Y-42624761D01*
X152693809Y-42672380D01*
X152455714Y-42672380D01*
X153979523Y-42672380D02*
X153408095Y-42672380D01*
X153693809Y-42672380D02*
X153693809Y-41672380D01*
X153598571Y-41815238D01*
X153503333Y-41910476D01*
X153408095Y-41958095D01*
X154455714Y-42672380D02*
X154646190Y-42672380D01*
X154741428Y-42624761D01*
X154789047Y-42577142D01*
X154884285Y-42434285D01*
X154931904Y-42243809D01*
X154931904Y-41862857D01*
X154884285Y-41767619D01*
X154836666Y-41720000D01*
X154741428Y-41672380D01*
X154550952Y-41672380D01*
X154455714Y-41720000D01*
X154408095Y-41767619D01*
X154360476Y-41862857D01*
X154360476Y-42100952D01*
X154408095Y-42196190D01*
X154455714Y-42243809D01*
X154550952Y-42291428D01*
X154741428Y-42291428D01*
X154836666Y-42243809D01*
X154884285Y-42196190D01*
X154931904Y-42100952D01*
X149805714Y-44572380D02*
X149234285Y-44572380D01*
X149520000Y-44572380D02*
X149520000Y-43572380D01*
X149424761Y-43715238D01*
X149329523Y-43810476D01*
X149234285Y-43858095D01*
%TO.C,D20*%
X110605078Y-75036030D02*
X109739053Y-74536030D01*
X109858100Y-74329834D01*
X109970768Y-74229925D01*
X110100866Y-74195066D01*
X110207154Y-74201446D01*
X110395921Y-74255444D01*
X110519639Y-74326873D01*
X110660786Y-74463350D01*
X110719455Y-74552209D01*
X110754315Y-74682306D01*
X110724126Y-74829834D01*
X110605078Y-75036030D01*
X110297722Y-73758863D02*
X110280292Y-73693814D01*
X110286672Y-73587526D01*
X110405719Y-73381330D01*
X110494578Y-73322661D01*
X110559626Y-73305231D01*
X110665915Y-73311611D01*
X110748393Y-73359230D01*
X110848302Y-73471898D01*
X111057459Y-74252483D01*
X111366983Y-73716372D01*
X110810481Y-72680262D02*
X110858100Y-72597783D01*
X110946959Y-72539114D01*
X111012007Y-72521684D01*
X111118296Y-72528064D01*
X111307062Y-72582063D01*
X111513259Y-72701110D01*
X111654407Y-72837588D01*
X111713076Y-72926446D01*
X111730505Y-72991495D01*
X111724126Y-73097783D01*
X111676507Y-73180262D01*
X111587648Y-73238931D01*
X111522599Y-73256360D01*
X111416311Y-73249981D01*
X111227545Y-73195982D01*
X111021348Y-73076934D01*
X110880200Y-72940457D01*
X110821531Y-72851598D01*
X110804101Y-72786550D01*
X110810481Y-72680262D01*
X111784630Y-69192987D02*
X111498916Y-69687859D01*
X111641773Y-69440423D02*
X110775747Y-68940423D01*
X110851846Y-69094330D01*
X110886706Y-69224428D01*
X110880326Y-69330716D01*
%TO.C,D21*%
X109982172Y-123154588D02*
X110848198Y-122654588D01*
X110967245Y-122860784D01*
X110997435Y-123008312D01*
X110962575Y-123138409D01*
X110903906Y-123227268D01*
X110762758Y-123363745D01*
X110639040Y-123435174D01*
X110450274Y-123489172D01*
X110343985Y-123495552D01*
X110213888Y-123460693D01*
X110101220Y-123360784D01*
X109982172Y-123154588D01*
X111241910Y-123526993D02*
X111306958Y-123544423D01*
X111395817Y-123603092D01*
X111514864Y-123809288D01*
X111521244Y-123915576D01*
X111503814Y-123980625D01*
X111445145Y-124069484D01*
X111362667Y-124117103D01*
X111215139Y-124147292D01*
X110434553Y-123938134D01*
X110744077Y-124474245D01*
X111220267Y-125299032D02*
X110934553Y-124804160D01*
X111077410Y-125051596D02*
X111943436Y-124551596D01*
X111772099Y-124540546D01*
X111642001Y-124505686D01*
X111553143Y-124447017D01*
X107011724Y-121809621D02*
X106726010Y-121314749D01*
X106868867Y-121562185D02*
X107734893Y-121062185D01*
X107563556Y-121051135D01*
X107433458Y-121016275D01*
X107344600Y-120957606D01*
%TO.C,D22*%
X152455714Y-29972380D02*
X152455714Y-28972380D01*
X152693809Y-28972380D01*
X152836666Y-29020000D01*
X152931904Y-29115238D01*
X152979523Y-29210476D01*
X153027142Y-29400952D01*
X153027142Y-29543809D01*
X152979523Y-29734285D01*
X152931904Y-29829523D01*
X152836666Y-29924761D01*
X152693809Y-29972380D01*
X152455714Y-29972380D01*
X153408095Y-29067619D02*
X153455714Y-29020000D01*
X153550952Y-28972380D01*
X153789047Y-28972380D01*
X153884285Y-29020000D01*
X153931904Y-29067619D01*
X153979523Y-29162857D01*
X153979523Y-29258095D01*
X153931904Y-29400952D01*
X153360476Y-29972380D01*
X153979523Y-29972380D01*
X154360476Y-29067619D02*
X154408095Y-29020000D01*
X154503333Y-28972380D01*
X154741428Y-28972380D01*
X154836666Y-29020000D01*
X154884285Y-29067619D01*
X154931904Y-29162857D01*
X154931904Y-29258095D01*
X154884285Y-29400952D01*
X154312857Y-29972380D01*
X154931904Y-29972380D01*
X149805714Y-31872380D02*
X149234285Y-31872380D01*
X149520000Y-31872380D02*
X149520000Y-30872380D01*
X149424761Y-31015238D01*
X149329523Y-31110476D01*
X149234285Y-31158095D01*
%TO.C,D23*%
X100605719Y-69067792D02*
X99739694Y-68567792D01*
X99858741Y-68361596D01*
X99971409Y-68261687D01*
X100101507Y-68226828D01*
X100207795Y-68233208D01*
X100396562Y-68287206D01*
X100520280Y-68358635D01*
X100661427Y-68495112D01*
X100720096Y-68583971D01*
X100754956Y-68714068D01*
X100724767Y-68861596D01*
X100605719Y-69067792D01*
X100298363Y-67790625D02*
X100280933Y-67725576D01*
X100287313Y-67619288D01*
X100406360Y-67413092D01*
X100495219Y-67354423D01*
X100560267Y-67336993D01*
X100666556Y-67343373D01*
X100749034Y-67390992D01*
X100848943Y-67503660D01*
X101058100Y-68284245D01*
X101367624Y-67748134D01*
X100668265Y-66959459D02*
X100977789Y-66423348D01*
X101141037Y-66902500D01*
X101212465Y-66778782D01*
X101301324Y-66720113D01*
X101366372Y-66702683D01*
X101472661Y-66709063D01*
X101678857Y-66828110D01*
X101737526Y-66916969D01*
X101754956Y-66982017D01*
X101748576Y-67088306D01*
X101605719Y-67335741D01*
X101516861Y-67394411D01*
X101451812Y-67411840D01*
X101785271Y-63224749D02*
X101499557Y-63719621D01*
X101642414Y-63472185D02*
X100776388Y-62972185D01*
X100852487Y-63126092D01*
X100887347Y-63256190D01*
X100880967Y-63362478D01*
%TO.C,D24*%
X99822172Y-128234588D02*
X100688198Y-127734588D01*
X100807245Y-127940784D01*
X100837435Y-128088312D01*
X100802575Y-128218409D01*
X100743906Y-128307268D01*
X100602758Y-128443745D01*
X100479040Y-128515174D01*
X100290274Y-128569172D01*
X100183985Y-128575552D01*
X100053888Y-128540693D01*
X99941220Y-128440784D01*
X99822172Y-128234588D01*
X101081910Y-128606993D02*
X101146958Y-128624423D01*
X101235817Y-128683092D01*
X101354864Y-128889288D01*
X101361244Y-128995576D01*
X101343814Y-129060625D01*
X101285145Y-129149484D01*
X101202667Y-129197103D01*
X101055139Y-129227292D01*
X100274553Y-129018134D01*
X100584077Y-129554245D01*
X101589999Y-129963220D02*
X101012648Y-130296553D01*
X101800866Y-129566547D02*
X101063228Y-129717493D01*
X101372752Y-130253604D01*
X96851724Y-126889621D02*
X96566010Y-126394749D01*
X96708867Y-126642185D02*
X97574893Y-126142185D01*
X97403556Y-126131135D01*
X97273458Y-126096275D01*
X97184600Y-126037606D01*
%TO.C,J2*%
X163260665Y-114700510D02*
X163617808Y-115319100D01*
X163647997Y-115466627D01*
X163613137Y-115596725D01*
X163513229Y-115709393D01*
X163430750Y-115757012D01*
X163679438Y-114568703D02*
X163696867Y-114503654D01*
X163755537Y-114414796D01*
X163961733Y-114295748D01*
X164068021Y-114289369D01*
X164133070Y-114306798D01*
X164221928Y-114365467D01*
X164269547Y-114447946D01*
X164299737Y-114595473D01*
X164090579Y-115376059D01*
X164626690Y-115066536D01*
%TO.C,U1*%
X152973095Y-93232380D02*
X152973095Y-94041904D01*
X153020714Y-94137142D01*
X153068333Y-94184761D01*
X153163571Y-94232380D01*
X153354047Y-94232380D01*
X153449285Y-94184761D01*
X153496904Y-94137142D01*
X153544523Y-94041904D01*
X153544523Y-93232380D01*
X154544523Y-94232380D02*
X153973095Y-94232380D01*
X154258809Y-94232380D02*
X154258809Y-93232380D01*
X154163571Y-93375238D01*
X154068333Y-93470476D01*
X153973095Y-93518095D01*
%TO.C,D25*%
X144041714Y-105140380D02*
X144041714Y-104140380D01*
X144279809Y-104140380D01*
X144422666Y-104188000D01*
X144517904Y-104283238D01*
X144565523Y-104378476D01*
X144613142Y-104568952D01*
X144613142Y-104711809D01*
X144565523Y-104902285D01*
X144517904Y-104997523D01*
X144422666Y-105092761D01*
X144279809Y-105140380D01*
X144041714Y-105140380D01*
X144994095Y-104235619D02*
X145041714Y-104188000D01*
X145136952Y-104140380D01*
X145375047Y-104140380D01*
X145470285Y-104188000D01*
X145517904Y-104235619D01*
X145565523Y-104330857D01*
X145565523Y-104426095D01*
X145517904Y-104568952D01*
X144946476Y-105140380D01*
X145565523Y-105140380D01*
X146470285Y-104140380D02*
X145994095Y-104140380D01*
X145946476Y-104616571D01*
X145994095Y-104568952D01*
X146089333Y-104521333D01*
X146327428Y-104521333D01*
X146422666Y-104568952D01*
X146470285Y-104616571D01*
X146517904Y-104711809D01*
X146517904Y-104949904D01*
X146470285Y-105045142D01*
X146422666Y-105092761D01*
X146327428Y-105140380D01*
X146089333Y-105140380D01*
X145994095Y-105092761D01*
X145946476Y-105045142D01*
%TD*%
M02*
