%TF.GenerationSoftware,KiCad,Pcbnew,(5.1.12)-1*%
%TF.CreationDate,2021-12-12T20:51:00-05:00*%
%TF.ProjectId,snowflake,736e6f77-666c-4616-9b65-2e6b69636164,rev?*%
%TF.SameCoordinates,Original*%
%TF.FileFunction,Paste,Top*%
%TF.FilePolarity,Positive*%
%FSLAX46Y46*%
G04 Gerber Fmt 4.6, Leading zero omitted, Abs format (unit mm)*
G04 Created by KiCad (PCBNEW (5.1.12)-1) date 2021-12-12 20:51:00*
%MOMM*%
%LPD*%
G01*
G04 APERTURE LIST*
%ADD10R,2.440000X1.120000*%
%ADD11C,0.100000*%
%ADD12R,1.500000X1.000000*%
%ADD13R,2.500000X1.800000*%
G04 APERTURE END LIST*
D10*
%TO.C,SW1*%
X151790400Y-117195600D03*
X143180400Y-117195600D03*
%TD*%
D11*
%TO.C,D3*%
G36*
X181469295Y-81081657D02*
G01*
X180603269Y-81581657D01*
X179853269Y-80282619D01*
X180719295Y-79782619D01*
X181469295Y-81081657D01*
G37*
G36*
X178698013Y-82681657D02*
G01*
X177831987Y-83181657D01*
X177081987Y-81882619D01*
X177948013Y-81382619D01*
X178698013Y-82681657D01*
G37*
G36*
X183919295Y-85325181D02*
G01*
X183053269Y-85825181D01*
X182303269Y-84526143D01*
X183169295Y-84026143D01*
X183919295Y-85325181D01*
G37*
G36*
X181148013Y-86925181D02*
G01*
X180281987Y-87425181D01*
X179531987Y-86126143D01*
X180398013Y-85626143D01*
X181148013Y-86925181D01*
G37*
%TD*%
%TO.C,D2*%
G36*
X182157754Y-113877757D02*
G01*
X181291728Y-113377757D01*
X182041728Y-112078719D01*
X182907754Y-112578719D01*
X182157754Y-113877757D01*
G37*
G36*
X179386472Y-112277757D02*
G01*
X178520446Y-111777757D01*
X179270446Y-110478719D01*
X180136472Y-110978719D01*
X179386472Y-112277757D01*
G37*
G36*
X179707754Y-118121281D02*
G01*
X178841728Y-117621281D01*
X179591728Y-116322243D01*
X180457754Y-116822243D01*
X179707754Y-118121281D01*
G37*
G36*
X176936472Y-116521281D02*
G01*
X176070446Y-116021281D01*
X176820446Y-114722243D01*
X177686472Y-115222243D01*
X176936472Y-116521281D01*
G37*
%TD*%
%TO.C,C1*%
G36*
G01*
X142780000Y-112518000D02*
X142780000Y-112018000D01*
G75*
G02*
X143005000Y-111793000I225000J0D01*
G01*
X143455000Y-111793000D01*
G75*
G02*
X143680000Y-112018000I0J-225000D01*
G01*
X143680000Y-112518000D01*
G75*
G02*
X143455000Y-112743000I-225000J0D01*
G01*
X143005000Y-112743000D01*
G75*
G02*
X142780000Y-112518000I0J225000D01*
G01*
G37*
G36*
G01*
X144330000Y-112518000D02*
X144330000Y-112018000D01*
G75*
G02*
X144555000Y-111793000I225000J0D01*
G01*
X145005000Y-111793000D01*
G75*
G02*
X145230000Y-112018000I0J-225000D01*
G01*
X145230000Y-112518000D01*
G75*
G02*
X145005000Y-112743000I-225000J0D01*
G01*
X144555000Y-112743000D01*
G75*
G02*
X144330000Y-112518000I0J225000D01*
G01*
G37*
%TD*%
%TO.C,C2*%
G36*
G01*
X144330000Y-110486000D02*
X144330000Y-109986000D01*
G75*
G02*
X144555000Y-109761000I225000J0D01*
G01*
X145005000Y-109761000D01*
G75*
G02*
X145230000Y-109986000I0J-225000D01*
G01*
X145230000Y-110486000D01*
G75*
G02*
X145005000Y-110711000I-225000J0D01*
G01*
X144555000Y-110711000D01*
G75*
G02*
X144330000Y-110486000I0J225000D01*
G01*
G37*
G36*
G01*
X142780000Y-110486000D02*
X142780000Y-109986000D01*
G75*
G02*
X143005000Y-109761000I225000J0D01*
G01*
X143455000Y-109761000D01*
G75*
G02*
X143680000Y-109986000I0J-225000D01*
G01*
X143680000Y-110486000D01*
G75*
G02*
X143455000Y-110711000I-225000J0D01*
G01*
X143005000Y-110711000D01*
G75*
G02*
X142780000Y-110486000I0J225000D01*
G01*
G37*
%TD*%
D12*
%TO.C,D1*%
X151728000Y-127305000D03*
X151728000Y-130505000D03*
X156628000Y-127305000D03*
X156628000Y-130505000D03*
%TD*%
%TO.C,D4*%
X156374000Y-142062000D03*
X156374000Y-138862000D03*
X151474000Y-142062000D03*
X151474000Y-138862000D03*
%TD*%
D11*
%TO.C,D5*%
G36*
X186677372Y-122350381D02*
G01*
X185811346Y-121850381D01*
X186561346Y-120551343D01*
X187427372Y-121051343D01*
X186677372Y-122350381D01*
G37*
G36*
X189448654Y-123950381D02*
G01*
X188582628Y-123450381D01*
X189332628Y-122151343D01*
X190198654Y-122651343D01*
X189448654Y-123950381D01*
G37*
G36*
X189127372Y-118106857D02*
G01*
X188261346Y-117606857D01*
X189011346Y-116307819D01*
X189877372Y-116807819D01*
X189127372Y-118106857D01*
G37*
G36*
X191898654Y-119706857D02*
G01*
X191032628Y-119206857D01*
X191782628Y-117907819D01*
X192648654Y-118407819D01*
X191898654Y-119706857D01*
G37*
%TD*%
%TO.C,D6*%
G36*
X190512372Y-80791281D02*
G01*
X189646346Y-81291281D01*
X188896346Y-79992243D01*
X189762372Y-79492243D01*
X190512372Y-80791281D01*
G37*
G36*
X193283654Y-79191281D02*
G01*
X192417628Y-79691281D01*
X191667628Y-78392243D01*
X192533654Y-77892243D01*
X193283654Y-79191281D01*
G37*
G36*
X188062372Y-76547757D02*
G01*
X187196346Y-77047757D01*
X186446346Y-75748719D01*
X187312372Y-75248719D01*
X188062372Y-76547757D01*
G37*
G36*
X190833654Y-74947757D02*
G01*
X189967628Y-75447757D01*
X189217628Y-74148719D01*
X190083654Y-73648719D01*
X190833654Y-74947757D01*
G37*
%TD*%
D12*
%TO.C,D7*%
X156335900Y-154000000D03*
X156335900Y-150800000D03*
X151435900Y-154000000D03*
X151435900Y-150800000D03*
%TD*%
D11*
%TO.C,D8*%
G36*
X203328654Y-125307757D02*
G01*
X202462628Y-124807757D01*
X203212628Y-123508719D01*
X204078654Y-124008719D01*
X203328654Y-125307757D01*
G37*
G36*
X200557372Y-123707757D02*
G01*
X199691346Y-123207757D01*
X200441346Y-121908719D01*
X201307372Y-122408719D01*
X200557372Y-123707757D01*
G37*
G36*
X200878654Y-129551281D02*
G01*
X200012628Y-129051281D01*
X200762628Y-127752243D01*
X201628654Y-128252243D01*
X200878654Y-129551281D01*
G37*
G36*
X198107372Y-127951281D02*
G01*
X197241346Y-127451281D01*
X197991346Y-126152243D01*
X198857372Y-126652243D01*
X198107372Y-127951281D01*
G37*
%TD*%
%TO.C,D9*%
G36*
X201274154Y-69638957D02*
G01*
X200408128Y-70138957D01*
X199658128Y-68839919D01*
X200524154Y-68339919D01*
X201274154Y-69638957D01*
G37*
G36*
X198502872Y-71238957D02*
G01*
X197636846Y-71738957D01*
X196886846Y-70439919D01*
X197752872Y-69939919D01*
X198502872Y-71238957D01*
G37*
G36*
X203724154Y-73882481D02*
G01*
X202858128Y-74382481D01*
X202108128Y-73083443D01*
X202974154Y-72583443D01*
X203724154Y-73882481D01*
G37*
G36*
X200952872Y-75482481D02*
G01*
X200086846Y-75982481D01*
X199336846Y-74683443D01*
X200202872Y-74183443D01*
X200952872Y-75482481D01*
G37*
%TD*%
D12*
%TO.C,D10*%
X151220000Y-162230000D03*
X151220000Y-165430000D03*
X156120000Y-162230000D03*
X156120000Y-165430000D03*
%TD*%
D11*
%TO.C,D11*%
G36*
X208267372Y-133031281D02*
G01*
X207401346Y-132531281D01*
X208151346Y-131232243D01*
X209017372Y-131732243D01*
X208267372Y-133031281D01*
G37*
G36*
X211038654Y-134631281D02*
G01*
X210172628Y-134131281D01*
X210922628Y-132832243D01*
X211788654Y-133332243D01*
X211038654Y-134631281D01*
G37*
G36*
X210717372Y-128787757D02*
G01*
X209851346Y-128287757D01*
X210601346Y-126988719D01*
X211467372Y-127488719D01*
X210717372Y-128787757D01*
G37*
G36*
X213488654Y-130387757D02*
G01*
X212622628Y-129887757D01*
X213372628Y-128588719D01*
X214238654Y-129088719D01*
X213488654Y-130387757D01*
G37*
%TD*%
%TO.C,D12*%
G36*
X211674354Y-63327257D02*
G01*
X210808328Y-63827257D01*
X210058328Y-62528219D01*
X210924354Y-62028219D01*
X211674354Y-63327257D01*
G37*
G36*
X208903072Y-64927257D02*
G01*
X208037046Y-65427257D01*
X207287046Y-64128219D01*
X208153072Y-63628219D01*
X208903072Y-64927257D01*
G37*
G36*
X214124354Y-67570781D02*
G01*
X213258328Y-68070781D01*
X212508328Y-66771743D01*
X213374354Y-66271743D01*
X214124354Y-67570781D01*
G37*
G36*
X211353072Y-69170781D02*
G01*
X210487046Y-69670781D01*
X209737046Y-68371743D01*
X210603072Y-67871743D01*
X211353072Y-69170781D01*
G37*
%TD*%
D12*
%TO.C,D13*%
X151220000Y-66980000D03*
X151220000Y-70180000D03*
X156120000Y-66980000D03*
X156120000Y-70180000D03*
%TD*%
D11*
%TO.C,D14*%
G36*
X125601346Y-84242243D02*
G01*
X126467372Y-84742243D01*
X125717372Y-86041281D01*
X124851346Y-85541281D01*
X125601346Y-84242243D01*
G37*
G36*
X128372628Y-85842243D02*
G01*
X129238654Y-86342243D01*
X128488654Y-87641281D01*
X127622628Y-87141281D01*
X128372628Y-85842243D01*
G37*
G36*
X128051346Y-79998719D02*
G01*
X128917372Y-80498719D01*
X128167372Y-81797757D01*
X127301346Y-81297757D01*
X128051346Y-79998719D01*
G37*
G36*
X130822628Y-81598719D02*
G01*
X131688654Y-82098719D01*
X130938654Y-83397757D01*
X130072628Y-82897757D01*
X130822628Y-81598719D01*
G37*
%TD*%
%TO.C,D15*%
G36*
X127301346Y-115552243D02*
G01*
X128167372Y-115052243D01*
X128917372Y-116351281D01*
X128051346Y-116851281D01*
X127301346Y-115552243D01*
G37*
G36*
X130072628Y-113952243D02*
G01*
X130938654Y-113452243D01*
X131688654Y-114751281D01*
X130822628Y-115251281D01*
X130072628Y-113952243D01*
G37*
G36*
X124851346Y-111308719D02*
G01*
X125717372Y-110808719D01*
X126467372Y-112107757D01*
X125601346Y-112607757D01*
X124851346Y-111308719D01*
G37*
G36*
X127622628Y-109708719D02*
G01*
X128488654Y-109208719D01*
X129238654Y-110507757D01*
X128372628Y-111007757D01*
X127622628Y-109708719D01*
G37*
%TD*%
D12*
%TO.C,D16*%
X151410500Y-55550000D03*
X151410500Y-58750000D03*
X156310500Y-55550000D03*
X156310500Y-58750000D03*
%TD*%
D11*
%TO.C,D17*%
G36*
X120662628Y-75248719D02*
G01*
X121528654Y-75748719D01*
X120778654Y-77047757D01*
X119912628Y-76547757D01*
X120662628Y-75248719D01*
G37*
G36*
X117891346Y-73648719D02*
G01*
X118757372Y-74148719D01*
X118007372Y-75447757D01*
X117141346Y-74947757D01*
X117891346Y-73648719D01*
G37*
G36*
X118212628Y-79492243D02*
G01*
X119078654Y-79992243D01*
X118328654Y-81291281D01*
X117462628Y-80791281D01*
X118212628Y-79492243D01*
G37*
G36*
X115441346Y-77892243D02*
G01*
X116307372Y-78392243D01*
X115557372Y-79691281D01*
X114691346Y-79191281D01*
X115441346Y-77892243D01*
G37*
%TD*%
%TO.C,D18*%
G36*
X117462628Y-116058719D02*
G01*
X118328654Y-115558719D01*
X119078654Y-116857757D01*
X118212628Y-117357757D01*
X117462628Y-116058719D01*
G37*
G36*
X114691346Y-117658719D02*
G01*
X115557372Y-117158719D01*
X116307372Y-118457757D01*
X115441346Y-118957757D01*
X114691346Y-117658719D01*
G37*
G36*
X119912628Y-120302243D02*
G01*
X120778654Y-119802243D01*
X121528654Y-121101281D01*
X120662628Y-121601281D01*
X119912628Y-120302243D01*
G37*
G36*
X117141346Y-121902243D02*
G01*
X118007372Y-121402243D01*
X118757372Y-122701281D01*
X117891346Y-123201281D01*
X117141346Y-121902243D01*
G37*
%TD*%
D12*
%TO.C,D19*%
X156120000Y-47320000D03*
X156120000Y-44120000D03*
X151220000Y-47320000D03*
X151220000Y-44120000D03*
%TD*%
D11*
%TO.C,D20*%
G36*
X105120705Y-72430481D02*
G01*
X105986731Y-72930481D01*
X105236731Y-74229519D01*
X104370705Y-73729519D01*
X105120705Y-72430481D01*
G37*
G36*
X107891987Y-74030481D02*
G01*
X108758013Y-74530481D01*
X108008013Y-75829519D01*
X107141987Y-75329519D01*
X107891987Y-74030481D01*
G37*
G36*
X107570705Y-68186957D02*
G01*
X108436731Y-68686957D01*
X107686731Y-69985995D01*
X106820705Y-69485995D01*
X107570705Y-68186957D01*
G37*
G36*
X110341987Y-69786957D02*
G01*
X111208013Y-70286957D01*
X110458013Y-71585995D01*
X109591987Y-71085995D01*
X110341987Y-69786957D01*
G37*
%TD*%
%TO.C,D21*%
G36*
X106981346Y-128252243D02*
G01*
X107847372Y-127752243D01*
X108597372Y-129051281D01*
X107731346Y-129551281D01*
X106981346Y-128252243D01*
G37*
G36*
X109752628Y-126652243D02*
G01*
X110618654Y-126152243D01*
X111368654Y-127451281D01*
X110502628Y-127951281D01*
X109752628Y-126652243D01*
G37*
G36*
X104531346Y-124008719D02*
G01*
X105397372Y-123508719D01*
X106147372Y-124807757D01*
X105281346Y-125307757D01*
X104531346Y-124008719D01*
G37*
G36*
X107302628Y-122408719D02*
G01*
X108168654Y-121908719D01*
X108918654Y-123207757D01*
X108052628Y-123707757D01*
X107302628Y-122408719D01*
G37*
%TD*%
D12*
%TO.C,D22*%
X151220000Y-31420000D03*
X151220000Y-34620000D03*
X156120000Y-31420000D03*
X156120000Y-34620000D03*
%TD*%
D11*
%TO.C,D23*%
G36*
X100342628Y-63818719D02*
G01*
X101208654Y-64318719D01*
X100458654Y-65617757D01*
X99592628Y-65117757D01*
X100342628Y-63818719D01*
G37*
G36*
X97571346Y-62218719D02*
G01*
X98437372Y-62718719D01*
X97687372Y-64017757D01*
X96821346Y-63517757D01*
X97571346Y-62218719D01*
G37*
G36*
X97892628Y-68062243D02*
G01*
X98758654Y-68562243D01*
X98008654Y-69861281D01*
X97142628Y-69361281D01*
X97892628Y-68062243D01*
G37*
G36*
X95121346Y-66462243D02*
G01*
X95987372Y-66962243D01*
X95237372Y-68261281D01*
X94371346Y-67761281D01*
X95121346Y-66462243D01*
G37*
%TD*%
%TO.C,D24*%
G36*
X97142628Y-127488719D02*
G01*
X98008654Y-126988719D01*
X98758654Y-128287757D01*
X97892628Y-128787757D01*
X97142628Y-127488719D01*
G37*
G36*
X94371346Y-129088719D02*
G01*
X95237372Y-128588719D01*
X95987372Y-129887757D01*
X95121346Y-130387757D01*
X94371346Y-129088719D01*
G37*
G36*
X99592628Y-131732243D02*
G01*
X100458654Y-131232243D01*
X101208654Y-132531281D01*
X100342628Y-133031281D01*
X99592628Y-131732243D01*
G37*
G36*
X96821346Y-133332243D02*
G01*
X97687372Y-132832243D01*
X98437372Y-134131281D01*
X97571346Y-134631281D01*
X96821346Y-133332243D01*
G37*
%TD*%
%TO.C,J2*%
G36*
X166689656Y-119473030D02*
G01*
X165739656Y-117827582D01*
X167038694Y-117077582D01*
X167988694Y-118723030D01*
X166689656Y-119473030D01*
G37*
G36*
X164249528Y-117446605D02*
G01*
X163574528Y-116277471D01*
X163920938Y-116077471D01*
X164595938Y-117246605D01*
X164249528Y-117446605D01*
G37*
G36*
X163686612Y-117771605D02*
G01*
X163011612Y-116602471D01*
X163358022Y-116402471D01*
X164033022Y-117571605D01*
X163686612Y-117771605D01*
G37*
G36*
X165938278Y-116471605D02*
G01*
X165263278Y-115302471D01*
X165609688Y-115102471D01*
X166284688Y-116271605D01*
X165938278Y-116471605D01*
G37*
G36*
X165375362Y-116796605D02*
G01*
X164700362Y-115627471D01*
X165046772Y-115427471D01*
X165721772Y-116596605D01*
X165375362Y-116796605D01*
G37*
G36*
X164812445Y-117121605D02*
G01*
X164137445Y-115952471D01*
X164483855Y-115752471D01*
X165158855Y-116921605D01*
X164812445Y-117121605D01*
G37*
G36*
X164957606Y-120473030D02*
G01*
X164007606Y-118827582D01*
X165306644Y-118077582D01*
X166256644Y-119723030D01*
X164957606Y-120473030D01*
G37*
%TD*%
%TO.C,U1*%
G36*
G01*
X150285000Y-95400000D02*
X150285000Y-95100000D01*
G75*
G02*
X150435000Y-94950000I150000J0D01*
G01*
X152085000Y-94950000D01*
G75*
G02*
X152235000Y-95100000I0J-150000D01*
G01*
X152235000Y-95400000D01*
G75*
G02*
X152085000Y-95550000I-150000J0D01*
G01*
X150435000Y-95550000D01*
G75*
G02*
X150285000Y-95400000I0J150000D01*
G01*
G37*
G36*
G01*
X150285000Y-96670000D02*
X150285000Y-96370000D01*
G75*
G02*
X150435000Y-96220000I150000J0D01*
G01*
X152085000Y-96220000D01*
G75*
G02*
X152235000Y-96370000I0J-150000D01*
G01*
X152235000Y-96670000D01*
G75*
G02*
X152085000Y-96820000I-150000J0D01*
G01*
X150435000Y-96820000D01*
G75*
G02*
X150285000Y-96670000I0J150000D01*
G01*
G37*
G36*
G01*
X150285000Y-97940000D02*
X150285000Y-97640000D01*
G75*
G02*
X150435000Y-97490000I150000J0D01*
G01*
X152085000Y-97490000D01*
G75*
G02*
X152235000Y-97640000I0J-150000D01*
G01*
X152235000Y-97940000D01*
G75*
G02*
X152085000Y-98090000I-150000J0D01*
G01*
X150435000Y-98090000D01*
G75*
G02*
X150285000Y-97940000I0J150000D01*
G01*
G37*
G36*
G01*
X150285000Y-99210000D02*
X150285000Y-98910000D01*
G75*
G02*
X150435000Y-98760000I150000J0D01*
G01*
X152085000Y-98760000D01*
G75*
G02*
X152235000Y-98910000I0J-150000D01*
G01*
X152235000Y-99210000D01*
G75*
G02*
X152085000Y-99360000I-150000J0D01*
G01*
X150435000Y-99360000D01*
G75*
G02*
X150285000Y-99210000I0J150000D01*
G01*
G37*
G36*
G01*
X150285000Y-100480000D02*
X150285000Y-100180000D01*
G75*
G02*
X150435000Y-100030000I150000J0D01*
G01*
X152085000Y-100030000D01*
G75*
G02*
X152235000Y-100180000I0J-150000D01*
G01*
X152235000Y-100480000D01*
G75*
G02*
X152085000Y-100630000I-150000J0D01*
G01*
X150435000Y-100630000D01*
G75*
G02*
X150285000Y-100480000I0J150000D01*
G01*
G37*
G36*
G01*
X150285000Y-101750000D02*
X150285000Y-101450000D01*
G75*
G02*
X150435000Y-101300000I150000J0D01*
G01*
X152085000Y-101300000D01*
G75*
G02*
X152235000Y-101450000I0J-150000D01*
G01*
X152235000Y-101750000D01*
G75*
G02*
X152085000Y-101900000I-150000J0D01*
G01*
X150435000Y-101900000D01*
G75*
G02*
X150285000Y-101750000I0J150000D01*
G01*
G37*
G36*
G01*
X150285000Y-103020000D02*
X150285000Y-102720000D01*
G75*
G02*
X150435000Y-102570000I150000J0D01*
G01*
X152085000Y-102570000D01*
G75*
G02*
X152235000Y-102720000I0J-150000D01*
G01*
X152235000Y-103020000D01*
G75*
G02*
X152085000Y-103170000I-150000J0D01*
G01*
X150435000Y-103170000D01*
G75*
G02*
X150285000Y-103020000I0J150000D01*
G01*
G37*
G36*
G01*
X155235000Y-103020000D02*
X155235000Y-102720000D01*
G75*
G02*
X155385000Y-102570000I150000J0D01*
G01*
X157035000Y-102570000D01*
G75*
G02*
X157185000Y-102720000I0J-150000D01*
G01*
X157185000Y-103020000D01*
G75*
G02*
X157035000Y-103170000I-150000J0D01*
G01*
X155385000Y-103170000D01*
G75*
G02*
X155235000Y-103020000I0J150000D01*
G01*
G37*
G36*
G01*
X155235000Y-101750000D02*
X155235000Y-101450000D01*
G75*
G02*
X155385000Y-101300000I150000J0D01*
G01*
X157035000Y-101300000D01*
G75*
G02*
X157185000Y-101450000I0J-150000D01*
G01*
X157185000Y-101750000D01*
G75*
G02*
X157035000Y-101900000I-150000J0D01*
G01*
X155385000Y-101900000D01*
G75*
G02*
X155235000Y-101750000I0J150000D01*
G01*
G37*
G36*
G01*
X155235000Y-100480000D02*
X155235000Y-100180000D01*
G75*
G02*
X155385000Y-100030000I150000J0D01*
G01*
X157035000Y-100030000D01*
G75*
G02*
X157185000Y-100180000I0J-150000D01*
G01*
X157185000Y-100480000D01*
G75*
G02*
X157035000Y-100630000I-150000J0D01*
G01*
X155385000Y-100630000D01*
G75*
G02*
X155235000Y-100480000I0J150000D01*
G01*
G37*
G36*
G01*
X155235000Y-99210000D02*
X155235000Y-98910000D01*
G75*
G02*
X155385000Y-98760000I150000J0D01*
G01*
X157035000Y-98760000D01*
G75*
G02*
X157185000Y-98910000I0J-150000D01*
G01*
X157185000Y-99210000D01*
G75*
G02*
X157035000Y-99360000I-150000J0D01*
G01*
X155385000Y-99360000D01*
G75*
G02*
X155235000Y-99210000I0J150000D01*
G01*
G37*
G36*
G01*
X155235000Y-97940000D02*
X155235000Y-97640000D01*
G75*
G02*
X155385000Y-97490000I150000J0D01*
G01*
X157035000Y-97490000D01*
G75*
G02*
X157185000Y-97640000I0J-150000D01*
G01*
X157185000Y-97940000D01*
G75*
G02*
X157035000Y-98090000I-150000J0D01*
G01*
X155385000Y-98090000D01*
G75*
G02*
X155235000Y-97940000I0J150000D01*
G01*
G37*
G36*
G01*
X155235000Y-96670000D02*
X155235000Y-96370000D01*
G75*
G02*
X155385000Y-96220000I150000J0D01*
G01*
X157035000Y-96220000D01*
G75*
G02*
X157185000Y-96370000I0J-150000D01*
G01*
X157185000Y-96670000D01*
G75*
G02*
X157035000Y-96820000I-150000J0D01*
G01*
X155385000Y-96820000D01*
G75*
G02*
X155235000Y-96670000I0J150000D01*
G01*
G37*
G36*
G01*
X155235000Y-95400000D02*
X155235000Y-95100000D01*
G75*
G02*
X155385000Y-94950000I150000J0D01*
G01*
X157035000Y-94950000D01*
G75*
G02*
X157185000Y-95100000I0J-150000D01*
G01*
X157185000Y-95400000D01*
G75*
G02*
X157035000Y-95550000I-150000J0D01*
G01*
X155385000Y-95550000D01*
G75*
G02*
X155235000Y-95400000I0J150000D01*
G01*
G37*
%TD*%
D13*
%TO.C,D25*%
X143256000Y-107188000D03*
X147256000Y-107188000D03*
%TD*%
M02*
